<svg xmlns="http://www.w3.org/2000/svg" viewBox="0 0 1000 1000">
  <defs>
    <style>
      .cls-1, .cls-2, .cls-3, .cls-4 {
        fill: none;
      }

      .cls-1, .cls-2, .cls-3 {
        stroke: #1d1d1b;
      }

      .cls-1, .cls-2 {
        stroke-linecap: round;
        stroke-linejoin: round;
      }

      .cls-1 {
        stroke-width: 50px;
      }

      .cls-2, .cls-3, .cls-4 {
        stroke-width: 25px;
      }

      .cls-3, .cls-4 {
        stroke-miterlimit: 10;
      }

      .cls-4 {
        stroke: #1c1d1b;
      }
    </style>
  </defs>
  <g id="Coffre">
    <g>
      <polyline class="cls-1" points="576.82 620.89 576.82 841.73 189.07 841.73 189.07 622.03"/>
      <polyline class="cls-1" points="737.03 537.8 737.03 720.47 576.82 841.73"/>
      <polyline class="cls-1" points="246.8 591.69 189.07 620.89 296.47 620.89 403.87 620.89"/>
      <polyline class="cls-1" points="403.87 620.89 576.82 620.89 737.03 536.46 516.2 536.46"/>
      <polyline class="cls-1" points="358.83 504.56 358.83 213.07 742.85 213.07 742.85 536.46 516.2 536.46"/>
      <polyline class="cls-1" points="456.16 158.27 810.65 158.27 810.65 456.8"/>
      <line class="cls-1" x1="810.65" y1="456.8" x2="742.85" y2="536.46"/>
      <line class="cls-1" x1="810.65" y1="158.27" x2="742.85" y2="213.07"/>
      <line class="cls-1" x1="456.16" y1="158.27" x2="358.84" y2="213.07"/>
      <line class="cls-2" x1="456.16" y1="423.52" x2="456.16" y2="213.07"/>
      <line class="cls-2" x1="805.01" y1="456.8" x2="518.32" y2="456.8"/>
    </g>
    <g>
      <polyline class="cls-3" points="218.15 397.51 176.3 322.64 139.56 343.17 181.42 418.04"/>
      <rect class="cls-3" x="121.97" y="400.74" width="170.78" height="37.43" transform="translate(-178.31 154.5) rotate(-29.21)"/>
      <path class="cls-3" d="M331,524.89C305,488,279,452,253.35,415.19"/>
      <path class="cls-3" d="M178.36,457.11C195,499,214,539,230.92,580.6"/>
      <line class="cls-3" x1="215.74" y1="436.21" x2="263.88" y2="522.34"/>
    </g>
    <g>
      <path class="cls-4" d="M867.05,745.36c32,26.72,41.27,79.27,9.53,106.28-27.29,23.23-75,26.15-106.28,9.53-36.82-19.52-36.25-74.3-9.53-106.28,12.24-14.66,32.17-22.57,32.17-22.57,14.16,7.21,29.66,7,46.66-1.31C839.6,731,856.25,736.33,867.05,745.36Z"/>
      <path class="cls-4" d="M836.57,729.44c2-3.73,21.59-78.08,31.3-40.42,0,0,6.06,33.67,31.94,36.63,18.24-6.43,28.83,10.77,28.83,10.77"/>
      <path class="cls-4" d="M794.84,733.38l-6.54-72.9c15-12.84,29.07-15.19,42.08-3.78l6.54,72.91-.46,0,.09-.51"/>
      <rect class="cls-4" x="923.98" y="730.1" width="33.83" height="54.69" rx="16.91" transform="translate(-260.39 631.31) rotate(-32.84)"/>
      <path class="cls-4" d="M809.09,809.85c8.2-.21-1.69-16,5.26-20a18.25,18.25,0,0,1,24.9,6.82A22.82,22.82,0,0,1,831,827.91a28.53,28.53,0,0,1-38.91-10.66A35.65,35.65,0,0,1,805,768.49S798.76,810.13,809.09,809.85Z"/>
    </g>
    <g id="Calque_19" data-name="Calque 19">
      <path class="cls-3" d="M385.14,509.19A116.52,116.52,0,0,1,324.75,523c.65,1.08,4.54,8.81,6.32,7.42,2.46-1.92-4.91-7.14-6.32-7.42,11.75,17.75,20.76,41.88,8.72,61.8A47.38,47.38,0,0,1,320,599a189.16,189.16,0,0,1,23.55,27.76"/>
      <path class="cls-3" d="M285.09,635.73C291,620,305,607,320.46,599.08"/>
      <path class="cls-3" d="M323.83,522.25C311,527,285,530,284.58,510.06c-12.47,19,0,4.39,0,0C272,526,267,546,264,566c-3,24-3,50,10.65,69.84"/>
      <path class="cls-3" d="M381.78,510.92C400,501,418,488,428,469.68c6.61,16.07-3,5.52,0,0C437,496,464,522,493,510c4,34,19,64,40,93,4,5,8,9,11.83,13.64"/>
      <path class="cls-3" d="M427.91,468.48s32.7-24.74,12.77-39.07c37.2,1.31,65.9,20.81,65.9,20.81s48.08,29.29,43.15,54.4c-30.11-11.13-57.21,5.55-57.21,5.55"/>
      <path class="cls-3" d="M386.82,629.63c15.76-28.22,19.19-63.29,9.52-94.09a155.86,155.86,0,0,0-11.2-26.35"/>
      <path class="cls-3" d="M521,577.57s-89.21,22.19-136.48-69.3"/>
      <path class="cls-3" d="M493.7,622.11a289.16,289.16,0,0,1,45-11.13"/>
    </g>
  </g>
</svg>
