<svg xmlns="http://www.w3.org/2000/svg" viewBox="0 0 1000 1000">
  <defs>
    <style>
      .cls-1 {
        fill: none;
        stroke: #000;
        stroke-miterlimit: 10;
        stroke-width: 50px;
      }
    </style>
  </defs>
  <g id="Main">
    <path class="cls-1" d="M613.34,946.79c37.28.13,72.89-5.79,106.1-21.39a212.17,212.17,0,0,0,58-39.81c22-21.4,38.32-46.31,50.34-73.45,10.32-23.33,14.77-48.1,16.56-73.07,2.37-33,3.62-66,5-99,1.32-32.06.92-64.22,3.67-96.16,1.82-21.12,6.47-42.27,12.36-62.8,9.63-33.6,21.37-66.69,32.1-100,9.59-29.83,19.64-59.55,28.21-89.62,3.66-12.88,4.8-26.51-.68-39.7-7.28-17.51-28.33-24.39-44.18-12.81-8.65,6.32-17,14.92-21.17,24.16-11.75,26.24-20.91,53.46-31.7,80.08-17.21,42.43-32.28,85.71-55.77,125.75-3.84,6.54-9.58,12.39-15.42,17.63-8.5,7.64-20.25,4.84-21.59-5.79a167.5,167.5,0,0,1-.13-40.09c5-42.36,11.53-84.56,16.41-126.93C756,273.83,759.63,233.82,763,193.8q3.36-40.26,4.48-80.65c.22-8.32-2-17.2-5.39-25-6-13.77-18.44-20.65-34.52-21-14.23-.32-24,7-31.19,17.49-10.68,15.43-15.2,33-17.85,50.66-4.14,27.63-6.92,55.43-10.38,83.14-3,23.6-5.86,47.2-9.18,70.75-3.39,24-7.2,48-11,72-3.14,20.11-6,40.27-9.88,60.27-1.79,9.29-5.37,18.33-8.67,27.31-.66,1.79-3.75,2.82-5.72,4.2-1.16-1.8-3.06-3.51-3.36-5.43-1.18-7.5-2.63-15.07-2.58-22.6.25-37.25.9-74.49,1.51-111.73q.66-41.16,1.59-82.31c.29-13,1.41-25.94,1.31-38.9-.21-28.67-.3-57.36-1.73-86-.83-16.41-3.78-32.77-18.05-45.05-12.93-11.13-36.25-10.14-48.31,1.91A68.3,68.3,0,0,0,534.48,100c-3.25,19-4.83,38.37-6.37,57.62-2.87,35.88-5.21,71.78-7.76,107.68-1.72,24.18-3.14,48.37-5.2,72.53-3,35.82-2.76,72.07-14.38,106.88a43.84,43.84,0,0,1-9.21,15.19c-6.08,6.65-15.22,4.72-17.83-3.68-5.47-17.67-10.34-35.5-15.38-53.28Q440.53,340,422.79,277.07c-7.06-25.12-13.85-50.31-21-75.4-5.47-19.16-10.21-38.6-17.49-57.18a58.25,58.25,0,0,0-18.84-24.7c-18.23-13.37-45.82-2.25-51.61,18.68-6.78,24.49-3.91,48.57,1.71,72.62,8.44,36.17,17.65,72.18,25.8,108.39,11.08,49.19,21.19,98.57,32.22,147.77,10.74,47.86,19.12,96,16.75,145-.64,13.29-3.51,26.77-7.5,39.59-5.62,18-38.69-10.18-58.1-16.06A254.56,254.56,0,0,1,275,614.49c-29.54-16.44-57.51-35.29-87.14-51.6-26.43-14.57-55-24.8-86.68-24.15a75.27,75.27,0,0,0-22.53,4.08c-28.52,9.78-30,31.31-12.42,50.15,9.26,9.92,20.67,18.37,32.1,26.28,25.73,17.79,52,34.93,78.2,52.1,9.3,6.09,19.66,10.87,28.66,17.3,19.07,13.64,37.79,27.74,56.26,42.08,30.9,24,76.8,86.15,108,109.78,22.17,16.8,45.1,32.78,68.33,48.34,36.63,24.53,75.92,44.55,120.91,52.6C576.62,944.65,595.11,945.09,613.34,946.79Z"/>
  </g>
</svg>
