<svg xmlns="http://www.w3.org/2000/svg" viewBox="0 0 1000 1000">
  <defs>
    <style>
      .cls-1, .cls-2, .cls-3 {
        fill: none;
        stroke: #000;
      }

      .cls-1 {
        stroke-linecap: round;
        stroke-linejoin: round;
      }

      .cls-1, .cls-3 {
        stroke-width: 50px;
      }

      .cls-2, .cls-3 {
        stroke-miterlimit: 10;
      }

      .cls-2 {
        stroke-width: 25px;
      }
    </style>
  </defs>
  <g id="Monture">
    <path class="cls-1" d="M331.74,662c-57.32-10.83-103.81-39.52-167.41-88.16-205.33-174.67-96-248-96-248s133.34-37.33,96-128c0,0,179.34-180.67,360,0S861.67,87.16,861.67,87.16s76,121.34-22.67,220c9.33,82.67,69.33,74.67,69.33,74.67S935,481.83,615,428.5C608.47,574.67,536.3,656.6,421.22,662"/>
    <path class="cls-2" d="M164.33,197.83S384.33,424.5,599,335.16c160-58.24,240-28,240-28"/>
    <line class="cls-2" x1="349.58" y1="323.86" x2="349.58" y2="753"/>
    <line class="cls-2" x1="405.84" y1="343.67" x2="405.84" y2="753"/>
    <path class="cls-2" d="M151.48,276.92s209.3,165.74,12.85,296.91"/>
    <path class="cls-3" d="M468.49,856.27c0-64.06-39.79-116-88.89-116s-88.88,51.94-88.88,116Z"/>
  </g>
</svg>
