<svg xmlns="http://www.w3.org/2000/svg" viewBox="0 0 1000 1000">
  <defs>
    <style>
      .cls-1, .cls-2 {
        fill: none;
      }

      .cls-1 {
        stroke: #1c1d1b;
        stroke-miterlimit: 10;
        stroke-width: 25px;
      }

      .cls-2 {
        stroke: #1d1d1b;
        stroke-linecap: round;
        stroke-linejoin: round;
        stroke-width: 50px;
      }

      .cls-3 {
        fill: #1d1d1b;
      }
    </style>
  </defs>
  <g id="Fiole">
    <g id="Calque_13" data-name="Calque 13">
      <path class="cls-1" d="M585.72,519.31c6.6,73.61-47.67,151.17-121.34,145.25-63.35-5.1-126.8-61.22-145.25-121.35C297.45,472.55,366.86,404.57,440.47,398c33.75-3,68.65,12.05,68.65,12.05,8.71,26.8,28.38,46,60.17,56.88C569.29,466.89,583.49,494.44,585.72,519.31Z"/>
      <path class="cls-1" d="M567.46,461.12c7.14-2.23,125-70.86,89.93-11.44,0,0-34.62,49.83-5.86,86,30.93,14.81,22.65,49.66,22.65,49.66"/>
      <path class="cls-1" d="M510.18,413.72l83.23-99.63c34.85,2.66,55.51,17.41,57.51,48l-83.24,99.63-.62-.52.75-.53"/>
      <rect class="cls-1" x="633.17" y="578.57" width="60" height="97.01" rx="29.69" transform="translate(146.96 -125.61) rotate(12.16)"/>
      <path class="cls-1" d="M432.15,527.51c10.55,10,17.89-22.15,31.64-18.46a32.37,32.37,0,0,1,22.68,39.78A40.47,40.47,0,0,1,437,577.67c-26.85-7.21-42.72-35-35.44-62.16,9.1-33.9,43.69-54.08,77.26-45.07C478.85,470.44,418.85,514.89,432.15,527.51Z"/>
    </g>
  </g>
  <g id="Échange">
    <g>
      <polyline class="cls-2" points="90.22 684.43 90.22 173.18 701.01 173.18"/>
      <polygon class="cls-3" points="673.29 267.92 837.35 173.19 673.29 78.45 673.29 267.92"/>
    </g>
    <g>
      <polyline class="cls-2" points="909.78 315.56 909.78 826.82 298.99 826.82"/>
      <polygon class="cls-3" points="326.71 732.08 162.65 826.81 326.71 921.55 326.71 732.08"/>
    </g>
  </g>
</svg>
