<svg xmlns="http://www.w3.org/2000/svg" viewBox="0 0 1000 1000">
  <defs>
    <style>
      .cls-1 {
        fill: none;
      }

      .cls-1, .cls-2 {
        stroke: #1c1d1b;
        stroke-miterlimit: 10;
        stroke-width: 50px;
      }

      .cls-2 {
        fill: #1b1b1b;
      }
    </style>
  </defs>
  <g id="Sac">
    <path class="cls-1" d="M262.37,540.12l32.19-275.07c6.61-56.51,44-98.27,88-98.27H617.14c44,0,81.38,41.71,88,98.18l32,271.93"/>
    <path class="cls-1" d="M721,796.24c-22.91,33.09-56.15,54.2-93.68,54.2H372.68c-37.1,0-70-20.64-92.9-53.08"/>
    <path class="cls-1" d="M224.54,512.94h2.27a43.52,43.52,0,0,1,43.4,40.28l15.67,211.1a43.51,43.51,0,0,1-44,46.73l-77-1.17a43.51,43.51,0,0,1-42.75-46.47l11.27-165.27A91.41,91.41,0,0,1,224.54,512.94Z"/>
    <path class="cls-1" d="M776.09,513.29h-2.27a43.51,43.51,0,0,0-43.39,40.29L714.76,764.67a43.5,43.5,0,0,0,44,46.73l77-1.17a43.52,43.52,0,0,0,42.75-46.47L867.31,598.5A91.43,91.43,0,0,0,776.09,513.29Z"/>
    <rect class="cls-1" x="363.86" y="583.33" width="272.92" height="162.67" rx="40.44"/>
    <path class="cls-1" d="M288.25,319c0,164,423.28,164,423.28,0"/>
    <circle class="cls-2" cx="500.32" cy="455.99" r="47.78"/>
    <path class="cls-1" d="M432.34,166.78c0-162.37,136-162.37,136,0"/>
    <path class="cls-1" d="M698.05,234.1s122.09,160,113.52,286.34"/>
    <path class="cls-1" d="M300.65,234.1s-122.08,160-113.51,286.34"/>
  </g>
</svg>
