<svg id="Calque_1" data-name="Calque 1" xmlns="http://www.w3.org/2000/svg" viewBox="0 0 742.72 945.17"><defs><style>.cls-1,.cls-2{fill:none;stroke:#fff;stroke-miterlimit:10;}.cls-1{stroke-width:6px;}.cls-2{stroke-width:4px;}</style></defs><path class="cls-1" d="M399.47,881.31s22.86-8.25,42.73-40.11c-8.62-28.87,2.25-30.37-17.62-58.48A97.23,97.23,0,0,1,407,747.11S392.72,773,425.33,816.83c-10.87,6.38-57.35-54.73-55.85-61.1-19.12,3-35.61-12.75-35.61-12.75s28.86-3,33-8.24c-12-7.87-30.73-37.11-25.11-51-7.87-5.63-15.37-23.62-15.37-23.62s-8.62,13.12-2.25,42c-26.24-19.86-6-69.72-6-69.72s-5.25-10.5-2.62-19.87c-13.5-5.62-21.37-29.24-21.37-29.24s-11.62,19.5-8.62,54c-18.37-10.12-41.61-82.84-5.62-120.33.37-32.24,28.11-59.6,28.11-59.6s-33.74-52.48,14.62-104.21c49.48-40.49,46.11-34.49,46.11-34.49s22.12-28.87,38.23-50.23S443.51,228.3,469.29,235c.65-24.74,15.27-26.61,26.14-22.11-15.37-24-9-107.21-9-107.21s36.36-45,92.21-39.37c0,0,91.47,21.37,118.08,93,52.86,24.74,117,15.37,96.34-90.34,36.74,45,6.38,124.45-42,127.83l131.58,70.47s45.73,11.62,73.85-12.37c-3.75,29.24-49.49,39.36-77.6,30.37C921.28,340.76,922.4,370,922.4,370S976,406,971.89,485.83c-8.25,30.36-13.13,31.11-13.13,31.11s3,51.73-34.48,80.22c-33.74,40.49-26.24,70.1-10.12,102.34A52.23,52.23,0,0,1,889,670.64c-14.24,28.11-3.75,96.34,27.37,76.84-14.62,27-60,2.63-60,2.63s14.24,27.36-1.13,58.1c-6.75-27.36-3.75-31.11-24.74-43.86a42.86,42.86,0,0,1,4.87,27.74s-17.24-50.23-69-19.49c22.87,10.49,22.87,13.49,22.87,13.49s-21.75-2.62-24.74.75,13.87,17.62,13.87,17.62-24.75-5.62-25.12-15.37c-9.37,3,1.5,16.12,1.5,16.12s-25.49-8.25-33.74,1.88c-6.75,41.23,4.5,52.85,4.5,52.85s108.34,102.34,120,105.34,112.08,43.48,154.44,33" transform="translate(-258 -57.83)"/><path class="cls-1" d="M532.26,188.94s-5.62-77.6,70-90.82c52.29,17.15,63,42.74,63,42.74s-47-24.18-90.25,24.74C541.26,172.63,532.26,188.94,532.26,188.94Z" transform="translate(-258 -57.83)"/><path class="cls-2" d="M739.47,746.17,717.73,778.6s-64.85,78.34-126,115.83c-28.49,12.74-63,0-63,0s-30.74-21.74-72.73-84C407.34,761.73,412.21,695,412.21,695" transform="translate(-258 -57.83)"/><line class="cls-1" x1="463.1" y1="749.26" x2="459.73" y2="720.77"/><path class="cls-1" d="M425.49,764.93s4,24.14,10.37,38.4" transform="translate(-258 -57.83)"/></svg>