<svg id="Calque_1" data-name="Calque 1" xmlns="http://www.w3.org/2000/svg" viewBox="0 0 787.25 615.23"><defs><style>.cls-1,.cls-2,.cls-3{fill:none;stroke:#fff;stroke-miterlimit:10;}.cls-1{stroke-width:6px;}.cls-2{stroke-width:4px;}.cls-3{stroke-width:3px;}</style></defs><path class="cls-1" d="M368.62,1002.37s32.66-88.4,70.05-100.53c6.63-41.48,13.73-57.57,13.73-57.57s-30.77,36-52.54,20.36c29.82-25.57,57.74-70.06,56.8-132.54-25.09,85.67-48.76,84.25-48.76,84.25s36.45-55.85,31.24-103.66c-31.24,74.32-41.65,64.38-41.65,64.38S442,730.2,408.85,673.4c-24.61,45.91-57.27,47.8-57.27,47.8s16.56-7.1,24.61-18.93c-21.77-21.77-18-67.21-17-98.45C345,645,327.43,672.92,308,678.13c43.55-75.73,47.33-123.54,47.33-123.54S460,445.72,629,391.29c142,33.13,184.6,71,294.89,152.88,26,48.29,27,58.23,27,58.23S939.46,600,923.37,591C952.72,621.8,946.56,619,946.56,619s-38.34-16.09-44-37.39c0,0-3,35,32.66,59.52-8.87,3.37-35.32-12.6-37.63-25.56,1.6,46.15-23.43,63.72-23.43,63.72s.36,16,36.39,25.39c-11,3.19-36.3-5.95-43.75-14.38-1.16,10.83,4.34,28,21.38,41.89-22.54-2.13-33-8.88-33-8.88s5.15,22.55,29.11,23.08c-12.6,5.5-40.83,3.37-48.1-22.54,7.45,41.53-5.33,57.86-5.33,57.86a47.46,47.46,0,0,0-1.89-27.1c-4.62,27.34-10.89,24.62-10.89,24.62s9.23-56-1.3-64.26c-11.6,43.67-19,67.69,4.26,87.92-8.64,4.38-26.86-21.53-26.86-21.53s-6.81,108.27,72.18,105.79c-21.3,12.78-52.78-4.73-52.78-4.73S854,896.1,873.9,913.62" transform="translate(-215.75 -388.18)"/><path class="cls-1" d="M355.36,554.59s-71.85,84-106,173.48c-68.92,134.9,0,260.57,0,260.57" transform="translate(-215.75 -388.18)"/><path class="cls-1" d="M950.82,602.4s42.51,94.66,46.11,136.79c11.17,29.82-8.24,131.59-56,206.38" transform="translate(-215.75 -388.18)"/><path class="cls-2" d="M495.23,768.3s32.66,133,25.56,147.68c-6.39,14.68-12.27,18.46-12.27,18.46" transform="translate(-215.75 -388.18)"/><path class="cls-2" d="M767.4,774.45c1.19-.23-28.16,101.54-6.86,131.12" transform="translate(-215.75 -388.18)"/><path class="cls-2" d="M806.69,685.94s-24.38,52.3-44.73,82.24c0,0-28.4,41.18-127.8,95.5-86.27-27-137-99.76-137-99.76-7.58-4.14-44.73-91.23-44.73-91.23" transform="translate(-215.75 -388.18)"/><line class="cls-2" x1="314.51" y1="494.44" x2="348.59" y2="610.64"/><path class="cls-2" d="M737.82,875s-18,67.92-41.65,118.81" transform="translate(-215.75 -388.18)"/><path class="cls-3" d="M576.12,771.73s45.44,17.22,88.57,7.81,31.06-9.94,31.06-9.94" transform="translate(-215.75 -388.18)"/></svg>