<svg id="Calque_1" data-name="Calque 1" xmlns="http://www.w3.org/2000/svg" viewBox="0 0 973.75 901.26"><defs><style>.cls-1,.cls-2{fill:none;stroke:#000;stroke-miterlimit:10;}.cls-1{stroke-width:6px;}.cls-2{stroke-width:3px;}</style></defs><path class="cls-1" d="M224.11,738s31.16,166.7,84.07,212.36c153.66,8.7,280.5-95,280.5-95S623.47,891.64,692,882.58c45.66,25,66.68,29.72,139.16,76.47,31.89,31.53,37,41,37,41S979,980.07,1000,921C917.74,769.15,854,735.33,854,735.33l25.13,3.38S852.5,716.48,854,693.77s2.42-52.66,2.42-52.66S881,663.82,895,667.2c-5.32-20.78,1.93-31.89,1.93-31.89l49.77,2.41s-58-39.26-53.27-69c-22.84-39.14-29-113.8-29-113.8l84.44-3.26S900,433.93,906.14,419.8c23.55-20.66,57.26-23.55,57.26-23.55s-81.18-4.72-105.34-29.36C840,350.76,824.6,338.44,824.6,338.44s27.72-8.15,58.35,7.61C867.54,303.47,794,278.71,794,278.71s22.47-19.09,39.62-24.89C801,250.2,770.12,250,770.12,250s4.83-37.69,21-42.4c-17-.49-39.14,21-39.14,21l-34.67-.13s-44.39-40.95-70.12-39.13c33-17.22,42.22-68.13,42.22-68.13s-30.45,33.7-53.64,34.6c5.25-13.77,16.67-37.32,16.67-37.32S575.63,136,555.34,173c-14.32-20.3-4.17-36.6-4.17-36.6s-55.08,34.6-66,60.52c-5.13-33.22,10.21-37.33,15.65-37.21-2.18-6.16-9.55-11.11-31.53-18.12-7.31-7.37-.24-28.57-.24-28.57s-63.42,62.7-69.22,80.09c-22.11-16.31-134.45.54-134.45.54s23.92,13.05,21,25.37c-24.64,15.59-62.33-10.14-62.33-10.14s19.2,41,47.47,53.63c-54.36,18.48-78.64,45.66-78.64,45.66s29.35-12,39.86-3.62C181,327,125.9,364.35,125.9,364.35l55.93-.36S73.71,426.32,46.17,454.23c29.35-6.89,63.78-3.26,75.74,1.45S86.4,499.17,47.62,500.62c29,22.83,80.45-4,80.45-4S145.47,567.3,40,559.32c40.59,29,61.61,17.76,61.61,17.76S110.31,605,70.81,630c41-1.09,55.81-18.48,55.81-18.48s15.95,21.74,4.71,34.06c23.56-5.07,30.44-29,30.44-29s10.63,41.92-6.28,73.57C178.69,677.35,192.7,666,192.7,666S216.86,706.46,169,771C210.7,755.38,224.11,738,224.11,738Z" transform="translate(-29.53 -102.08)"/><path class="cls-2" d="M588.34,856.65c-3.22,11.66-28.53,101.37-47.5,110.85" transform="translate(-29.53 -102.08)"/><path class="cls-1" d="M854,735.33C761.18,665.27,677.1,718.9,677.1,718.9s-10.14,4.83-47.83,26.58c-37.69,54.6-40.59,109.92-40.59,109.92l-.34,1.25" transform="translate(-29.53 -102.08)"/><path class="cls-2" d="M278.26,908.55s4.18,25.42,0,46.68" transform="translate(-29.53 -102.08)"/><path class="cls-2" d="M560.12,875.64s-69.65,84.5-101.18,105.52" transform="translate(-29.53 -102.08)"/><path class="cls-2" d="M303.11,842.36s24.64-6.89,42.4,13.77c28.27,0,62.33,27.9,62.33,27.9" transform="translate(-29.53 -102.08)"/></svg>