<svg id="Calque_1" data-name="Calque 1" xmlns="http://www.w3.org/2000/svg" viewBox="0 0 569.64 764.69"><defs><style>.cls-1,.cls-2,.cls-3{fill:none;stroke:#000;}.cls-1,.cls-2{stroke-miterlimit:10;}.cls-1{stroke-width:6px;}.cls-2,.cls-3{stroke-width:4px;}.cls-3{stroke-linecap:round;stroke-linejoin:round;}</style></defs><path class="cls-1" d="M685.33,231.12s-78.86-8-124.65,26.17c-48.69,6.54-89.4,95.94-89.4,95.94s-25.43,44.57-62.5,38c19.62,22.53,53.78-9,53.78-9s-46.27,76.56-16.23,113.14c-1.21-50.63,18.41-86.25,18.41-86.25s11.15,117-43.12,126.47c32.71,13.57,47-31,47-31s2.18,24.47,14.05,45.54C485.58,622.39,518,655.58,518,655.58s-25.13-48.15-18.95-64.86c24.89,66.5,52.69,77.58,52.69,77.58s-23.08-28.89-19.62-47.06c29.07,45.25,48.15,47.06,48.15,47.06l-18,21.2-23,52.09s-9.08,63.48.12,84.31c17.93,42.64,33.44,62,33.44,62s2.42,38.94,9.32,52c-5.63,15.09-2.9,32.89-2.9,32.89s38.52,31.8,96.85,6.18c17.8-41.43,12-46,12-46s2.42-72.93-5.57-92.55c28.1-32.71,33.92-46.52,36.82-60.33C725.19,749.59,715,729,715,729s50.21-42.15,74.68-85c11.63-32.47,22.53-39.62,22.53-39.62L808.53,660s10.54-30.53,26.53-41.43c8.36,20.71,19.62,9.81,19.62,9.81s-13.44-6.91-3.27-13.45c11.27-6.18,30.17-42.52,27.26-69,14.54,18.9,17.81,17.45,17.81,17.45s-17.45-41.07,0-68.32c14.17-13.81,37.06-63.6-2.55-137,32.71,27.26,59.6,14.17,59.6,14.17s-32,3.64-70.5-43.24C868.86,278.73,762.88,225.67,685.33,231.12Z" transform="translate(-400.94 -227.31)"/><path class="cls-2" d="M797.44,625.33s.91,57.87,3.82,74.23S755.47,806.4,755.47,806.4" transform="translate(-400.94 -227.31)"/><path class="cls-1" d="M713.8,729" transform="translate(-400.94 -227.31)"/><path class="cls-1" d="M663.65,819.36s33.9-29.43,36.08-51C694.4,768.85,662.2,804.1,663.65,819.36Z" transform="translate(-400.94 -227.31)"/><path class="cls-3" d="M698,769.73S715.25,742.8,713.8,729c0,0,1.15-28-14.29-27.13-5.64,25.86-10.72,35.31-16,41.31-5.73,6.51-49.91,57.29-49.91,57.29L625,806l1.45-68.87s22.17-52,17.08-70.32c-22,12.9-23.8,21.08-41.25,58.33-2,40-3.81,77.77-3.81,77.77s-23.62,1.27-26.71-30.53c0,0-6.73-52.69,12.9-78.86,16.72-15.26,5.81-26.16-4.36-25.26" transform="translate(-400.94 -227.31)"/><path class="cls-1" d="M593.31,678.84s26.67-9.31,39.24-4.59" transform="translate(-400.94 -227.31)"/><path class="cls-1" d="M644.29,672.91s43.83,6,55.7,28.94" transform="translate(-400.94 -227.31)"/></svg>