<svg id="Calque_1" data-name="Calque 1" xmlns="http://www.w3.org/2000/svg" viewBox="0 0 813.34 864.34"><defs><style>.cls-1,.cls-2{fill:none;stroke:#000;stroke-miterlimit:10;}.cls-1{stroke-width:6px;}.cls-2{stroke-width:3px;}</style></defs><path class="cls-1" d="M506.39,759.43s-30.15,26.39-52.77,20.22c-19.53-9.25-19.53-23.3-19.53-23.3s-16.79-31.53-61.67-75c-25.7,30.84-31.87,44.88-31.87,44.88s27.07-77.78-4.11-118.89c-19.87,63.39-25.36,125.4-25.36,125.4s3.09-81.55,0-90.45c-9.93-5.49-21.93-43.18-21.93-43.18s-13.36,22.62-25.35,34.61a61.21,61.21,0,0,0,14.39,32.21s-21.93-19.19-19.53-28.78c-37.35,36-52.08,35.29-52.08,35.29s46.25-26,49-46.26C247,596,249.75,521.29,249.75,521.29s-15.08-40.43-6.51-97c-24.67,15.08-45.57,58.6-48.66,80.87,2.06,27.07,10.28,58.59,10.28,58.59S179.51,516.49,194.58,450c33.58-91.14,44.2-120.95,158.31-233.34-44.89,2-102.46,42.14-102.46,42.14s45.15-64.16,143.06-72.89c56.54-51.66,114.36-53.71,114.36-53.71s8.22,2.82,7.71,6.16c86.6-21.84,101.85-37.86,210.13,30.33C824,221.82,864.12,332.49,961.08,372.93c-62-14.74-97.31-35.64-97.31-35.64s33.92,104.85,31.87,142.88c26-15.16,42.4-27.49,49.6-44.45,7.19-35.21-11-40.61-16.71-45.49,23.65,11.31,43.18,51.14-9.76,107.93,2.05,20.05,80.69,38.29,80.69,38.29s-50.37-8-55-12.07c19.78,22.35,17.47,39.06,17.47,39.06s25.87,38.2,19.19,52.42C961.26,578.69,941.9,536,891,557.44c21.59,37.18,16.79,49.68,16.79,49.68s-41.71-105.87-112.9-46.77c-29.81,29.56-82.23,139.12-82.23,139.12s11.05-32.72,7.45-36.07c-6.17,3.09-38,31.36-8,54.74-12.33-2.82-18.24-8.48-18.24-8.48s-8,37.78,6.93,43.69C684.14,740.76,674.12,731,677.72,694c-27,24.41-46.52,29.81-46.52,29.81S664.1,695,668,680.11c-11.82-13.88-11.56-21.85-11.56-21.85s-28,35.73-40.09,37.52c25.69-32.89,31.09-53.71,31.09-53.71l-44.46,53.2s-17.22,58.08-4.11,78.9c-15.93-11.06-6.68-68.88-6.68-68.88Z" transform="translate(-186.8 -116.57)"/><path class="cls-2" d="M857.6,450.07s21.08,19.82,26.73,35.76c-22.61,10.28-38,18.5-38,18.5s-9.77-6.17-3.6-14.9C862.49,464.76,857.6,450.07,857.6,450.07Z" transform="translate(-186.8 -116.57)"/><polygon class="cls-2" points="625.19 392.65 624.29 404.6 632.26 408.71 633.29 399.46 625.19 392.65"/><path class="cls-1" d="M270,563.09s-18,36.33-10.63,56.71C278,598,279.73,580.57,279.73,580.57s.17-13.36-8.91-17.48" transform="translate(-186.8 -116.57)"/><path class="cls-2" d="M313,553.84c-.21.5-15.42,35.3-15.42,35.3s9.08,37.17,15.42,40.94C320.68,593.59,313.41,552.81,313,553.84Z" transform="translate(-186.8 -116.57)"/><path class="cls-2" d="M509,757.78s17.86,26.15,15.54,48,12.85,52.69,12.85,52.69" transform="translate(-186.8 -116.57)"/><path class="cls-1" d="M720,684.61s-4.72,31-.78,43.81" transform="translate(-186.8 -116.57)"/><path class="cls-2" d="M765.72,600.6s-71,163.8-62.31,182.3C689,844.58,699.3,877,699.3,877l48.83,103.31" transform="translate(-186.8 -116.57)"/><path class="cls-2" d="M890.16,575.78s-3.77,21.92-11,30.66c1,27.07,2.91,31.52,2.91,31.52s7.37,8.74.52,32.55c26,30.84,54.48,67,73,126.27" transform="translate(-186.8 -116.57)"/></svg>