<svg id="Calque_1" data-name="Calque 1" xmlns="http://www.w3.org/2000/svg" viewBox="0 0 953.31 876.46"><defs><style>.cls-1,.cls-2{fill:none;stroke:#fff;}.cls-1{stroke-miterlimit:10;stroke-width:6px;}.cls-2{stroke-linecap:round;stroke-linejoin:round;stroke-width:3px;}</style></defs><path class="cls-1" d="M476.55,878.54c7.95,5,13.56,40.45,8.71,38s-9.69,5.15-9.69,5.15,2.12,7.27-4.24,45.11c-19.68,22.11-90.23,40.88-103.85,30,75.7-27.86,66-79.33,55.71-97.19,3.63-15.75-4.24-32.71-4.24-32.71s-17.56,11.91-18.77,30.28c.81,15.14-26,43.4-91.44,67.22-42.39,17.16-86.4-8.27-86.4-8.27s31.29,12.31,51.68-1.22c5.45-13.72,26-22,26-22s14.33-47.64-2.42-74.48c-28.26,3.23-52.89,29.87-52.89,29.87s-74.89,24.43-84.58-8.68c54.3,21.2,74.39-35.12,74.39-35.12s-3.64-62.07-.61-91.44c4.54,6.66-44.81,34.82-44.81,34.82s-9.09,28.16.6,43c-17.86-12.71-21.8-20.59-11.2-48.44-8.48-22.71,12.72-56,12.72-56S185.5,712.19,164,708.86c-43.91.61-80.55,14.84-105.68,37.55,7.27-34.52,54.2-69.34,54.2-69.34s16.35,6.36,46.93-24.23c.61-50.26,46.94-95.37,46.94-95.37s-10.3,1.81-15.14-7.27c-23.32,3.63-54.81-29.37-56.93-53.29-21.8-48.14,18.47-66.61,18.47-66.61s-9.69,10.29-12.11,39.06c59,44.2,90.74-1.11,90.74-1.11s1.21-37.55,44.41-69c-27.86,8.48-35.94-9.69-35.94-9.69-6.05-14.13,1.22-63.38,1.22-63.38,2-11.71-19.79-15.75-19.79-15.75s44.82-5.65,46,47.24c53.69,28.26,76.3-16.15,76.3-16.15s-21.4-50.06,33.91-103.76c18.17.81,87.61-48.44,87.61-48.44s10.49-15.75,17.76-54.1c3.63,6.46,12.92,57.73-30.28,100.12-44.81,29.47-34.31,73.07-34.31,73.07s18.16-29.87,65.8-33.5c48.85-62.18,137.27-53.3,137.27-53.3s11.3-12.91-.81-44.81c4,12.92,8.07,14.13,8.07,14.13s10.9,4.85,14.13,37.55c132,33.91,122.53,166.43,122.53,166.43S789,404.26,818,365.8c46.93-23,76.3-6.66,76.3-6.66s-45.12,3.63-46.33,39.67c-16.65,66.61-75.09,75.09-75.09,75.09s25.74,5.75,55.11,54.5c41.78,104.16,172,41.48,172,41.48s-20.89,40.27-52.68,47.84c-28.77,35.43-87.31,32.8-87.31,32.8s29.67,26.85,46.23,63.18a85.33,85.33,0,0,0,29.42,25.14s-75.24-30.59-137.47-40.58c7.88,9.09,16,44.81,16,44.81S842,800.15,913,800c-37.85,23.46-94.92,34.82-141.4-7-24.68-18.47-19.08,7.42-19.08,7.42s4.7,11.51,4.39,31.19c18.62,36.94,75.3,14.89,75.3,14.89s-31.49,38.15-76.31,35.12c3.43,84,54.3,74.08,54.3,74.08-85,11.1-121.11-81.55-121.11-81.55s.6,6.26-18.77,26.85c-38.56,53.89-11.11,67,12.31,82.76-13.53,3.63-33.91-4.24-47-35.12-19.38-41.79-6.06-97.5,15.74-130.2-22-12.92-19.78-67.22-19.78-67.22s-50.87,105-122.33,137.26c-63-14.13-111.83-55.71-111.83-55.71s-36.73-34.32-54.09-73.88c-21.8-34-32.4-41.13-32.4-41.13s-9.39,98.56,41.18,69.49c8.17,18.17-25.74,20-25.74,20s-81.75-15.14-56.62-87.66C251.51,749.13,234,753.07,234,753.07" transform="translate(-53.5 -126.54)"/><path class="cls-2" d="M532.5,788.19S491,822.1,462.25,810.29" transform="translate(-53.5 -126.54)"/></svg>