<svg id="Calque_1" data-name="Calque 1" xmlns="http://www.w3.org/2000/svg" viewBox="0 0 1325.38 495.91"><defs><style>.cls-1,.cls-2{fill:none;stroke:#fff;stroke-miterlimit:10;}.cls-1{stroke-width:6px;}.cls-2{stroke-width:3px;}</style></defs><path class="cls-1" d="M553.54,683.42s4.26-45.12,84.28,6.81c95.77,87.68,97,126.84,97,126.84s-2.13-16.17-17-21.71c11.92,68.1,76.61,132.8,312,94.07,35.32-14,49.8-35.33,39.58-59.17,36,70.66-128.12,107-90.66,103.43,54.67-5.28,183.45-8.08,227.71,24.26,67.25,43.42,23.84,125.14,23.84,125.14s-115.77,63-242.61,44.27c-91.94,60.44-219.63,3.47-219.63,3.47s-4.25-59.66-58.74-131.16c-62.14-48.53-60.44-36.61-60.44-36.61l.86-46s-4.26,22.14-23.84,31.5c-54.2-64.7-116.06-62.43-128.82-44V891.13S485.44,889,476.5,875c-2.55,12.76,0,17,0,17s-2.61,1.31-7.09-1.39a30.81,30.81,0,0,1-8.23-8,188.16,188.16,0,0,0,11.92,22.13s-44.27-14-40.86-52.35c-22.14,7.66-19.16,27.24-19.16,27.24s-17.16-14.33-12.77-34.76c-7.37,31.64-3.68,29.79-3.68,29.79s-42.71-49.94-6.53-90.8c-37.88,10.43-66.19-17.24-66.19-17.24s53.21,6.81,71.51-8.72c-22.35,1.27-28.94-8.3-28.94-8.3s71.29-4.9,79.38-25.54C468.63,682.78,531.62,660.22,553.54,683.42Z" transform="translate(78.29 -662.24)"/><path class="cls-2" d="M1154.75,1023.93c.31,1,17.45-40.65-26.81-51.5-41.93-8.94-39.16-5.75-39.16-5.75S1132.68,997.29,1154.75,1023.93Z" transform="translate(78.29 -662.24)"/><path class="cls-2" d="M1199.23,965s-24.69-22.77-50.65-18.52c28.73,15.32,47,32.35,47,32.35S1207.53,974.77,1199.23,965Z" transform="translate(78.29 -662.24)"/><path class="cls-1" d="M-77.81,750.24s45.4,7.38,72.07-10.21c46.54,19.86,50.51,27.81,50.51,27.81s42.56-10.79,70.37-5.68,211.68,83.43,211.68,83.43l62.82,19.25" transform="translate(78.29 -662.24)"/></svg>