<svg id="Calque_1" data-name="Calque 1" xmlns="http://www.w3.org/2000/svg" viewBox="0 0 978.82 871.41"><defs><style>.cls-1{fill:none;stroke:#1d1d1b;stroke-miterlimit:10;stroke-width:6px;}</style></defs><path class="cls-1" d="M408.93,938.72s-12.23-31.85-41.77-77.3c-38.07,26.53-69.92,41.3-69.92,41.3s-62.07-48.92-74.07-69c-22.21-23.71-29.48-32.54-35.88-54-16.44-15.06-26.83-39.8-26.83-39.8l26.71-22.62s-45-49.9-50.93-82.43c-15.75-8.48-18-14.2-18-14.2S116.33,803.5,154,830.5c11.76,3.46,17.53-12.93,17.53-12.93s8.54,24.23-18,24.23c-33.92-43.38-48.22-150-51.34-192.56C56.45,590.92,50.4,500.06,50.4,500.06s-8.48,132.74,28.2,150C34.13,618.43,36.72,511.83,36.72,511.83S48.26,369,74.1,348.91c-12.54-18.63-9.95-27.45-9.95-27.45s3.12-5.28,12.38-6.84C65,287.62,58.62,252.23,61,248.85a8.14,8.14,0,0,1,6.66-2.94s-47.48-60.83-39.17-72.14c33.46-4.84,71.42,0,71.42,0s-7.5-15.11-23.54-36c-.11-17.66,83.53,2.77,83.53,2.77s175.84-2.31,184.38,25.15c116.06-42.92,226.83-7.39,279.9,17.07,93.68,57.69,121.84,138.69,121.84,138.69s4.38-5.37,16.15-6.75c41.53-.35,45.86.86,45.86.86s58.67-7.09,73,10.56c18.52,14.36,19,40.15,19,40.15s25.44,22.84,26,38.77c2.25,26-3.46,37.55-3.46,37.55s62.48,2.08,77.36,20.77c-19.38,56.07-56.07,66.46-56.07,66.46s-6.06,20.59-26,25.26c0,0,2.59,5.37-8.83,14.71A54.49,54.49,0,0,1,869.51,593s-4.85,10.39-11.08,8.14c-18.34-12.29-22.84-48.46-22.84-48.46s31.15,109.38,30.46,193.83c12.46,61.61,36.69,96.92,59.19,129.8,3.11,30.81-3.81,24.23-15.58,19,2.08,19.73-6.75,43.09-26.13,26.3,1.38,24.41-1.39,26.31-1.39,26.31s6.93,31.15,3.81,44.3c-22.15-28.21-24.57-42-24.57-41.36s-2.72,17.83-15.41,20.6c-26.3-18.7-26.76-59.08-26.76-59.08s-15,24.23-31.85,25.15c-21.92-14.76-21.46-39.92-21.46-39.92s-16.38,33.23-32.53,31.62c-15.23-60.46,36-187.14,36-187.14S799.59,693.2,800.05,621c-1.15-12.46-8.07-63.45-11.53-63.92,5.53,55.85-20.31,94.84-36.93,117,0,0-21,60.68-77.3,94.6C633.91,787.34,616.6,773,616.6,773s20.31,21.23,14.77,41.76c-7.84-30-38.64-56.16-35.07-48.45,19,41,24,80.53,63.46,155.52" transform="translate(-24.56 -127.59)"/><line class="cls-1" x1="370.06" y1="710.29" x2="340.31" y2="735.42"/></svg>