<svg id="Calque_1" data-name="Calque 1" xmlns="http://www.w3.org/2000/svg" viewBox="0 0 879.38 967.77"><defs><style>.cls-1{fill:none;stroke:#1d1d1b;stroke-miterlimit:10;stroke-width:6px;}</style></defs><path class="cls-1" d="M578.08,1000s-3.24-16-16.18-34c0-12.48,4.16-13.25,4.16-13.25s11.71-25.11-10.17-21.72-36-3.24-38.52-14.8c-49.76-37.74-104.3-71.25-104.3-71.25s-29.36-15-40.68-69.8c-37.9-18.26-48.76-57.08-48.76-57.08s-5.09,83.43,65.63,112.32c-14.79,5.31-48.53-3.93-82.5-78.81-2.78-4.16-7.63,0-6.48,6.93.93,66.33,2.55,86.44,2.55,86.44s25.42,71,68.41,83.19c21.95,9.48,41.36-10.63,41.36-10.63s-9,31.43-58.47,21c5.78,20.8,10.17,31,19.65,37.68C349.05,962.79,343,949.39,343,949.39s-45.3,6.47-64-39.75c-20.34-44.15-25.42-113.25-25.42-113.25s-13.17-28-11.32-49.46c-1.39-26.34-2.08-50.15-2.08-50.15s-27.74-72.56-19.88-126.64c-2.31-52.24,0-102.62,30.51-178.88-52.7,13.4-94.76,7.85-116.48-15.26-28-32.81-16.64-47.14-16.64-47.14s19.64,81.58,139.13,33.28c9-61.48,45.52-83,45.52-83s-64.94-18.26-82.19-56.47c55.15,33,87.82,33.59,87.82,33.59s-35.75-71.49,17.56-177.8c-16.33,74,4.32,128.49,27.74,144.21,21.57-29,35.43-27.12,35.43-27.12S427.55,67.09,586.86,37.81c-49.3,41.6-56.39,18.8-115.55,131.58,78-40.67,143.9-16.33,143.9-16.33s85,.62,103.85,27.42c65.94.62,98.91-12.32,123.87-40.67-33,42.83-47.76,55.16-105.08,71.8,58.86,31.43,77.66,69.64,77.66,69.64s32.35,21.26,122.64,13.56c-29.58,15.71-58.24,35.43-103.23,33.28.61,6.47,25.88,21.57,30.51,60.7,47.45,19.72,33.58,44.68,112.78,45.3-57.63,26.19-112.48,34.2-112.48,34.2s6.17,12.95,4,40.68c10.2,9.94,16.33,28,57,41-22.5,5.55-65.33-7.09-65.33-7.09s-7.09,30.51,20.34,61.63c28,38.52,23.72,43.14,23.72,43.14s-24-28.65-76.11-36c21.26,27.73,29,41,29,41S844,639.16,838.92,636.7c0,0-4.46,34.82,45,48.07-12,2.77-38.51-5.24-39-5.09s15.41,15.1,27.12,19.88c-15.41.15-53.31-28.51-53.31-28.51s-14,43.45,36,56.55c27.12,4.31,33.9-.93,33.9-.93s-23.11,21.11-81.66,2.62c12.64,34.05,6.32,51.77,3.08,61.94-11.09-51.46-30.2-47.61-30.2-47.61s-1.54,12.48-3.08,19c25.27,23.73,36.36,63.33,36.67,65.33,16.64,22,24.65,26.35,24.65,26.35s-17.41-.93-35.59-22.19c-8.32-25.88-26.34-37.75-27.88-38.21s.3,27.27,6.31,33c12.25,16.18,20.57,50.38,20.57,50.38s15,32.82,42.53,50.38" transform="translate(-112.44 -32.82)"/></svg>