<svg id="Calque_1" data-name="Calque 1" xmlns="http://www.w3.org/2000/svg" viewBox="0 0 609.53 916.85"><defs><style>.cls-1,.cls-2,.cls-3,.cls-4{fill:none;stroke:#fff;stroke-miterlimit:10;}.cls-1{stroke-width:6px;}.cls-2{stroke-width:3px;}.cls-3{stroke-width:4px;}.cls-4{stroke-width:2px;}</style></defs><path class="cls-1" d="M469.56,1000s-18.52-16.69-4.25-58C448,910.1,452.57,902,452.57,902s-11.21,3.9-24.8-37.71c-12.74-16.48-38-47.57-31.93-56.06,7.3-8.32,19.36-12.4,19.36-12.4s-37.2-18-3.06-46.71a212.07,212.07,0,0,1,53.17-31.94s14.78-28,41.28-34.22c31.59-16.06,89.35-42.21,107-55.63a23.4,23.4,0,0,1,12.06-11.38s-3.22-25.14-11.72-27.52c0,0-1.7,15-21.57,21.23,10.7-12.74,13.08-5.1,12.91-25.48-4.25-2.38-8.32-8.32-8.32-8.32s4,30.91-20,29.38c7.64-3.56,12.4-20.63-6.71-32,5.43,30.83-.68,55.47-37.88,59,15-5.6,28.45-21.23,9.93-55.71,0,0-4.5,27.18-20.29,32.78,12.4-13.93,17.41-42.72-2.47-52.23-2.21,19.62-12.82,23.27-23.61,25.14,4.93,5.43,16.56,2.89,16.56,2.89s-12.48,7.38-25.22-5.48c-12-13.63-12.74-32.11-12.74-32.11s-11,30.07-32.49,29.81C462,565.83,469.6,555,463.36,534.74c-10.07,12.87-28.28,1.15-35.16-13.12-11.09-12.61-30.83-54.53-16.82-101.41,13.5-28.53,0-43,0-43s-15.71-23.1,0-58.44c12-38.05,27.94-137.5,104.72-199.37,32.61-17.8,62.43-28.67,86.38-29.43,0,0,5.77-4.25,33.54,6.28,41.54-8.41,103-11.89,154.75,23.15,52.83,37,131.65,165.4,144.55,218.74,4.51,27.26.56,40.26.56,40.26s6.37-7.78,14.52-2,8.79,16.94,26.12,32.48c3.31,7,21.91,29.69,21.91,29.69V1000Z" transform="translate(-391.9 -86.15)"/><path class="cls-2" d="M430.49,467.22s-18.73,49.31,8.41,55.8c22.42,9.94,27.13-1.4,27.13-1.4S435.46,503.4,430.49,467.22Z" transform="translate(-391.9 -86.15)"/><path class="cls-1" d="M486.71,531.3s-3.31,48.41,8.58,48.5a25.41,25.41,0,0,0,11.47-26.16s-11.64-6.45-20.47-22.34" transform="translate(-391.9 -86.15)"/><path class="cls-2" d="M866.87,515.42s-4.59,6.37-5.27,12.74c18.69,14.61,27.86,15,27.86,15s23.27-7.22,32.79-4.5c-16.14-10-39.33-41.7-39.33-41.7S866.7,538,898.38,529.35C889.46,537.93,872.22,535.8,866.87,515.42Z" transform="translate(-391.9 -86.15)"/><path class="cls-2" d="M907,457.92l-1,17.41s4.5,5,9.34,4.25C920.8,465.4,907,457.92,907,457.92Z" transform="translate(-391.9 -86.15)"/><path class="cls-2" d="M895.92,295s42,45,37.71,83.92A16.68,16.68,0,0,1,922.08,374S926.66,352.61,895.92,295Z" transform="translate(-391.9 -86.15)"/><path class="cls-3" d="M678.15,570.29s66.42-7.39,73.89-17.07C740,574.45,709.58,588.55,678.15,570.29Z" transform="translate(-391.9 -86.15)"/><path class="cls-1" d="M687.68,574.87" transform="translate(-391.9 -86.15)"/><path class="cls-4" d="M686.3,573.6s8.41-.55,15.71-1.58c.72-.1.51.32,2.2,2.15.31-3.31,1.45-2.68,2.2-2.79,15.09-2.31,35.32-6.32,38.92-11.67" transform="translate(-391.9 -86.15)"/></svg>