<svg id="Calque_1" data-name="Calque 1" xmlns="http://www.w3.org/2000/svg" viewBox="0 0 877.21 823.89"><defs><style>.cls-1,.cls-2{fill:none;stroke:#fff;stroke-miterlimit:10;}.cls-1{stroke-width:6px;}.cls-2{stroke-width:3px;}</style></defs><path class="cls-1" d="M421.62,892.16s-16.23-40.57-77.7-26.81c-58.27,20.41-74.75,8.61-74.75,8.61s-28.27-67.37-53.11-104.74c-17.7-29.26-14-56.31-14-56.31s-24.26-26.39-14.1-34.26c26.88-16.39,32.78-27.86,32.78-27.86" transform="translate(-135.33 -204.76)"/><path class="cls-1" d="M192.64,675.71c-7.44-4.26-14.52-53.45-14.52-53.45s-11.54,34.43,7.34,52.79C170.19,667.51,158.12,619,158.12,619s-7.87,72.45,36.72,110.8c-65.24-37.37-56.06-181.94-56.06-181.94s10.16-133.92,68.68-204.74S370.23,210.34,471.53,207.88s185.88,31.47,241,84.58,99.33,109.17,189.82,130.81c48.19,10.82,85.07-8.12,85.07-8.12S956.64,439.74,849.93,442c60,70.32,64.18,123.18,64.18,123.18S977.05,609.48,1000,678c-35.08-43-114.09-61.31-114.09-61.31l-88.18-32.45s23.93,59.33,20,108.51c27.21,17.7,27.21,18.69,56.72,18.36-31.8,6.55-56.72-3.61-56.72-3.61S811.17,839,787.89,876c3.61-17-7.21-57.7-7.21-57.7s-24.92,68.52-78.35,78c44.58-30.82,54.74-82.62,41.3-119.34-34.09-11.14-56.39-33.11-60.65,25.57-2,50.82-14.09,79-26.88,91.14,12.79-39-3.28-62.29-12.13-66.55,0,0-13.44,28.85-2.29,55.08,37,87.2,92.45,135.39,114.41,143.59" transform="translate(-135.33 -204.76)"/><path class="cls-2" d="M901.32,555.88l-16.55-9-18.85-23S890.5,533.75,896.4,541C901.16,549.81,901.32,555.88,901.32,555.88Z" transform="translate(-135.33 -204.76)"/><path class="cls-1" d="M229.91,768.15" transform="translate(-135.33 -204.76)"/><path class="cls-2" d="M300.77,760.86s-22.62,6.64-41.31,4.67c-13.65,2.62-20.28,8.85-20.28,8.85s6.51,8.11,11.43,7.13C258.85,780,290.56,763.93,300.77,760.86Z" transform="translate(-135.33 -204.76)"/></svg>