<svg id="Calque_1" data-name="Calque 1" xmlns="http://www.w3.org/2000/svg" viewBox="0 0 961.51 396.93"><defs><style>.cls-1{fill:#7c7a8e;}.cls-2{fill:none;stroke:#7c7a8e;stroke-miterlimit:10;stroke-width:6px;}</style></defs><path class="cls-1" d="M319.52,425.7c1.43-9.41,89.8-24.37,138.24,24.52,24.13,24.36,34.5,60.68,27.24,66-7.51,5.55-29.42-25.19-82.06-54.82C351.59,432.55,318.64,431.54,319.52,425.7Z" transform="translate(-23.82 -278)"/><path class="cls-1" d="M445.91,513.22S461.23,509.17,473,520s-18.13,13.9-18.13,13.9S442.33,538,445.91,513.22Z" transform="translate(-23.82 -278)"/><polygon class="cls-1" points="478.96 242.51 436.67 297.17 478.96 281.17 478.96 242.51"/><polygon class="cls-1" points="438.56 339.46 478.63 283.14 437.01 300.84 438.56 339.46"/><path class="cls-1" d="M689.75,425.92c-1.43-9.41-89.8-24.37-138.24,24.52-24.13,24.36-34.5,60.68-27.23,66.05,7.5,5.55,29.41-25.19,82.05-54.82C657.68,432.77,690.63,431.76,689.75,425.92Z" transform="translate(-23.82 -278)"/><path class="cls-1" d="M563.37,513.45s-15.32-4.06-27.07,6.78,18.13,13.9,18.13,13.9S566.94,538.22,563.37,513.45Z" transform="translate(-23.82 -278)"/><polygon class="cls-1" points="482.67 242.73 524.97 297.39 482.67 281.39 482.67 242.73"/><polygon class="cls-1" points="523.07 339.68 483.01 283.36 524.63 301.06 523.07 339.68"/><polygon class="cls-1" points="480.75 286.04 443.93 339.9 480.75 318.32 517.58 339.9 480.75 286.04"/><path class="cls-1" d="M421.33,498.57s-44.27,65.71-44.61,68.09S504.57,674.93,504.57,674.93L390.68,567.34Z" transform="translate(-23.82 -278)"/><path class="cls-1" d="M587.82,498.57s44.26,65.71,44.6,68.09S504.57,674.93,504.57,674.93L618.46,567.34Z" transform="translate(-23.82 -278)"/><path class="cls-2" d="M438.52,427.62" transform="translate(-23.82 -278)"/><path class="cls-2" d="M438.52,427.62,445.26,416S213.29,281,209.21,281,32.84,402.89,32.84,402.89L220.78,409l-71.5,125.14,191.35-44.79L255.51,591,363.1,558.15l48.66-84.22" transform="translate(-23.82 -278)"/><path class="cls-2" d="M570.63,427.62,563.88,416S795.85,281,799.94,281,976.3,402.89,976.3,402.89L788.36,409l71.5,125.14L668.51,489.37,753.63,591,646,558.15l-48.65-84.22" transform="translate(-23.82 -278)"/></svg>