<svg xmlns="http://www.w3.org/2000/svg" viewBox="0 0 1000 1000">
  <defs>
    <style>
      .cls-1 {
        fill: none;
        stroke: #000;
        stroke-miterlimit: 10;
        stroke-width: 20px;
      }
    </style>
  </defs>
  <g id="Aqua">
    <path class="cls-1" d="M565.53,651.25C565.53,770.4,462.43,867,335.24,867S105,770.4,105,651.25,335.24,133,335.24,133,565.53,532.09,565.53,651.25Z"/>
    <polygon class="cls-1" points="305.28 339.72 161.09 560.66 125.48 672.92 225.26 807.51 385.3 807.51 485.08 672.92 449.46 560.66 305.28 339.72"/>
    <polygon class="cls-1" points="694.84 339.72 550.65 560.66 515.04 672.92 614.82 807.51 774.86 807.51 874.64 672.92 839.02 560.66 694.84 339.72"/>
    <path class="cls-1" d="M895.31,651.25C895.31,770.4,792.2,867,665,867S434.72,770.4,434.72,651.25,665,133,665,133,895.31,532.09,895.31,651.25Z"/>
  </g>
</svg>
