<svg id="Calque_1" data-name="Calque 1" xmlns="http://www.w3.org/2000/svg" viewBox="0 0 947 940.35"><defs><style>.cls-1,.cls-2{fill:none;stroke:#000;stroke-miterlimit:10;stroke-width:15px;}.cls-2{stroke-linecap:round;}</style></defs><polygon class="cls-1" points="479.03 9.27 19.88 342.87 195.26 882.63 762.8 882.63 938.18 342.87 479.03 9.27"/><polygon class="cls-1" points="612.34 54.52 326.96 54.52 96.08 222.26 7.89 493.68 96.08 765.1 326.96 932.85 612.34 932.85 843.22 765.1 931.41 493.68 843.22 222.26 612.34 54.52"/><polygon class="cls-1" points="459.52 173.44 236.04 274.4 149.41 503.81 250.37 727.29 479.78 813.92 703.26 712.96 789.89 483.55 688.93 260.07 459.52 173.44"/><polygon class="cls-1" points="603.72 571.09 603.72 416.27 469.65 338.87 335.57 416.27 335.57 571.09 469.65 648.5 603.72 571.09"/><path class="cls-2" d="M918.75,365.59C832.41,408.85,806,453.93,823.39,524a104.6,104.6,0,0,0,126.73,76.29,83.69,83.69,0,0,0,61-101.39A67,67,0,0,0,930,450.08,53.56,53.56,0,0,0,891,515a42.84,42.84,0,0,0,51.91,31.24,34.27,34.27,0,0,0,25-41.52,27.42,27.42,0,0,0-33.22-20,21.94,21.94,0,0,0-16,26.58,17.55,17.55,0,0,0,21.26,12.79" transform="translate(-446.92 -26.73)"/><rect class="cls-1" x="667.79" y="273.84" width="494.52" height="494.52" transform="translate(-139.44 -365.69) rotate(25.1)"/></svg>