<svg xmlns="http://www.w3.org/2000/svg" viewBox="0 0 1000 1000">
  <defs>
    <style>
      .cls-1, .cls-2 {
        fill: none;
        stroke: #000;
        stroke-miterlimit: 10;
      }

      .cls-1 {
        stroke-width: 20px;
      }

      .cls-2 {
        stroke-width: 10px;
      }
    </style>
  </defs>
  <g id="Drii_2" data-name="Drii 2">
    <polygon class="cls-1" points="585.08 928.3 786.81 686.78 737.41 334.09 639.98 458.97 500 51.4 360.02 458.97 262.59 334.09 213.19 686.78 414.92 928.3 585.08 928.3"/>
    <polygon class="cls-1" points="498.32 812.23 602.82 774.2 658.43 677.88 639.12 568.36 553.92 496.87 442.71 496.87 357.51 568.36 338.2 677.88 393.81 774.2 498.32 812.23"/>
    <polyline class="cls-2" points="639.12 568.36 500 649.65 658.43 677.88"/>
    <polyline class="cls-2" points="442.71 496.87 500 649.65 553.92 496.87"/>
    <polyline class="cls-2" points="338.2 677.88 500 649.65 357.51 568.36"/>
    <polyline class="cls-2" points="393.81 774.2 500 649.65 602.82 774.2"/>
  </g>
</svg>
