<svg id="Calque_1" data-name="Calque 1" xmlns="http://www.w3.org/2000/svg" viewBox="0 0 860.46 809.3">
  <defs>
    <style>
      .cls-1 {
        fill: #fff;
        stroke: #1d1d1b;
        stroke-linecap: round;
        stroke-linejoin: round;
        stroke-width: 10px;
      }
    </style>
  </defs>
  <polygon class="cls-1" points="833.97 115.31 622.02 275.19 410.07 435.07 382.23 389.13 354.38 343.19 594.18 229.25 833.97 115.31"/>
  <polygon class="cls-1" points="466.58 579.44 282.46 499.53 150.19 804.3 466.58 579.44"/>
  <polygon class="cls-1" points="539.07 412.44 723.18 492.35 855.46 187.57 539.07 412.44"/>
  <polygon class="cls-1" points="282.54 499.37 466.65 579.28 539.07 412.44 282.54 499.37"/>
  <polygon class="cls-1" points="723.12 492.51 539 412.6 466.58 579.44 723.12 492.51"/>
  <polygon class="cls-1" points="5 233.66 210.03 298.48 415.06 363.3 388.74 418.06 362.43 472.82 183.71 353.24 5 233.66"/>
  <polygon class="cls-1" points="538.09 5.33 506.54 218.03 474.98 430.73 416.75 413.42 358.51 396.1 448.3 200.71 538.09 5.33"/>
  <polygon class="cls-1" points="435.27 5 453.04 219.29 470.81 433.59 410.16 430 349.51 426.42 392.39 215.71 435.27 5"/>
  <polygon class="cls-1" points="94.38 56.08 273.14 224.25 451.9 392.43 405.11 431.19 358.33 469.95 226.35 263.01 94.38 56.08"/>
  <polygon class="cls-1" points="281.34 48.28 377.73 240.49 474.12 432.71 416.51 452 358.9 471.29 320.12 259.78 281.34 48.28"/>
</svg>
