<svg xmlns="http://www.w3.org/2000/svg" xmlns:xlink="http://www.w3.org/1999/xlink" viewBox="0 0 769.96 653.38"><defs><style>.cls-1,.cls-2,.cls-21{fill:none;stroke-miterlimit:10;}.cls-1,.cls-21{stroke:#fff;}.cls-2{stroke:#1d1d1b;stroke-width:7px;}.cls-3{fill:url(#Dégradé_sans_nom_229);}.cls-4{fill:url(#Dégradé_sans_nom_229-2);}.cls-5{fill:url(#Dégradé_sans_nom_229-3);}.cls-6{fill:url(#Dégradé_sans_nom_229-4);}.cls-7{fill:url(#Dégradé_sans_nom_229-5);}.cls-8{fill:url(#Dégradé_sans_nom_229-6);}.cls-9{fill:url(#Dégradé_sans_nom_229-7);}.cls-10{fill:url(#Dégradé_sans_nom_229-8);}.cls-11{fill-rule:evenodd;fill:url(#Dégradé_sans_nom_229-9);}.cls-12{fill:url(#Dégradé_sans_nom_229-10);}.cls-13{fill:url(#Dégradé_sans_nom_229-11);}.cls-14{fill:url(#Dégradé_sans_nom_229-12);}.cls-15{fill:url(#Dégradé_sans_nom_229-13);}.cls-16{fill:url(#Dégradé_sans_nom_229-14);}.cls-17{fill:url(#Dégradé_sans_nom_229-15);}.cls-18{fill:url(#Dégradé_sans_nom_229-16);}.cls-19{fill:url(#Dégradé_sans_nom_229-17);}.cls-20{fill:#1d1d1b;}.cls-21{stroke-width:3px;}</style><linearGradient id="Dégradé_sans_nom_229" x1="588.21" y1="767.94" x2="304.21" y2="270.61" gradientTransform="translate(-183.41 490.77) rotate(-45)" gradientUnits="userSpaceOnUse"><stop offset="0" stop-color="#fff"/><stop offset="0.01" stop-color="#fdfaf6"/><stop offset="0.05" stop-color="#f3e6cc"/><stop offset="0.1" stop-color="#ebd4aa"/><stop offset="0.14" stop-color="#e5c78f"/><stop offset="0.19" stop-color="#e1be7c"/><stop offset="0.23" stop-color="#deb871"/><stop offset="0.28" stop-color="#ddb66d"/><stop offset="0.78" stop-color="#9e813a"/><stop offset="1" stop-color="#1d1d1b"/></linearGradient><linearGradient id="Dégradé_sans_nom_229-2" x1="596.51" y1="763.2" x2="312.51" y2="265.87" xlink:href="#Dégradé_sans_nom_229"/><linearGradient id="Dégradé_sans_nom_229-3" x1="588.19" y1="767.95" x2="304.19" y2="270.62" xlink:href="#Dégradé_sans_nom_229"/><linearGradient id="Dégradé_sans_nom_229-4" x1="608.38" y1="756.42" x2="324.38" y2="259.09" xlink:href="#Dégradé_sans_nom_229"/><linearGradient id="Dégradé_sans_nom_229-5" x1="592.76" y1="765.34" x2="308.76" y2="268.01" xlink:href="#Dégradé_sans_nom_229"/><linearGradient id="Dégradé_sans_nom_229-6" x1="578.15" y1="773.69" x2="294.15" y2="276.35" xlink:href="#Dégradé_sans_nom_229"/><linearGradient id="Dégradé_sans_nom_229-7" x1="583.93" y1="770.39" x2="299.93" y2="273.05" xlink:href="#Dégradé_sans_nom_229"/><linearGradient id="Dégradé_sans_nom_229-8" x1="631.65" y1="743.13" x2="347.65" y2="245.8" xlink:href="#Dégradé_sans_nom_229"/><linearGradient id="Dégradé_sans_nom_229-9" x1="763.02" y1="668.12" x2="479.02" y2="170.78" xlink:href="#Dégradé_sans_nom_229"/><linearGradient id="Dégradé_sans_nom_229-10" x1="598.19" y1="762.24" x2="314.19" y2="264.91" xlink:href="#Dégradé_sans_nom_229"/><linearGradient id="Dégradé_sans_nom_229-11" x1="585.29" y1="769.61" x2="301.29" y2="272.28" xlink:href="#Dégradé_sans_nom_229"/><linearGradient id="Dégradé_sans_nom_229-12" x1="442.24" y1="851.3" x2="158.24" y2="353.97" xlink:href="#Dégradé_sans_nom_229"/><linearGradient id="Dégradé_sans_nom_229-13" x1="682.65" y1="714.01" x2="398.65" y2="216.68" xlink:href="#Dégradé_sans_nom_229"/><linearGradient id="Dégradé_sans_nom_229-14" x1="669.36" y1="721.6" x2="385.36" y2="224.27" xlink:href="#Dégradé_sans_nom_229"/><linearGradient id="Dégradé_sans_nom_229-15" x1="753.29" y1="673.67" x2="469.29" y2="176.34" xlink:href="#Dégradé_sans_nom_229"/><linearGradient id="Dégradé_sans_nom_229-16" x1="717.44" y1="694.14" x2="433.44" y2="196.81" xlink:href="#Dégradé_sans_nom_229"/><linearGradient id="Dégradé_sans_nom_229-17" x1="793.07" y1="650.96" x2="509.07" y2="153.63" xlink:href="#Dégradé_sans_nom_229"/></defs><g id="Couleur"><line class="cls-1" x1="243.61" y1="650.9" x2="767.49" y2="127.03"/><line class="cls-2" x1="243.61" y1="650.9" x2="767.49" y2="127.03"/></g><g id="Dessin"><path class="cls-3" d="M578,631.24s17.31,21.62,32.35,29.55,27.41,8,27.41,8a92.44,92.44,0,0,1-23.42-7c-7.14-3.3-14.29-8-18.8-14.66,0,0,12.76,6.34,13.83,16.84,0,0,0-8.13-9.35-15.77s-11-13.57-11-13.57,11.08,16.18,20.49,20.07,13.23,3.85,13.23,3.85-12.47-2.19-17.2-7.2-10.21-15.43-10.21-15.43,6.54,10.19,10.08,12.38S620.16,661,615.8,667.24c0,0,4.52-6.69-5-16.8s-9.66-11.58-9.66-11.58,21.42,14.85,24.66,29.09-1,16-1,16,12.41-9.5-8.54-35.42c0,0,10.61,11.55,17.61,13.69s9.72.78,9.72.78-11.85.18-16.42-6.39-5.28-8.87-5.28-8.87,11.73,10.9,15.22,17.48,8.07,18,21.05,16.79c0,0-12.34,1.23-18.23-14.24s-15-21.47-15-21.47,17.59,17.57,24.28,19.07S663,662.84,663,662.84s-12.44,5.89-19.29-1.91-15.36-20.88-21.55-21.64c0,0,12.07,4.26,17.24,13.68s3,30.83,10.7,35.77,7.35,9.76,7.35,9.76a10,10,0,0,0-3.76-8.93c-4.69-4.07-7.41-3.8-7.31-16.31s-2.43-31.94-15-36.87c0,0,41,34.89,68.32,23.14,0,0-18.89,6.84-40.28-9.28s-21.66-17.7-21.66-17.7,25.34,30,64.74,25.41c0,0-31.54,2.19-48.36-16.21,0,0,17.63,13.18,44.9,14.2s33.72-2.55,33.72-2.55-40.15,3.52-66.14-23.66c0,0,23.17,19.39,56.78,21.74s34.28-5.94,34.28-5.94,10.39-1.61,10.22-5.6c0,0,10.05,1.28,14.12-3.77,0,0-22.15,9.21-48.65-2.44s-29.25-12.32-29.25-12.32,28.66,11.27,40.1,13.19,21.88,5.71,39.7-.08c0,0-17.54,5.85-36.51-.39s-20.54-8.92-20.54-8.92,31.92,17.52,59,8.46c0,0-19.34,7.67-55.43-11,0,0,37.56,17.8,58.66,8.82,0,0,3.18-1.19,3.66-3.33a21.52,21.52,0,0,0,8.71-4.44c4.13-3.53,8.54-7.36,8.54-7.36s-18,14.11-45,5.61c0,0,40.7,4.07,56.88-18.17,0,0-10.69,9.66-19.61,8.14a45.24,45.24,0,0,0,22.21-11.67s-11.44,8.55-25.89,10.29-47.17-1.87-47.17-1.87,38.35,4.3,54.29-1.66,23.6-13.9,23.6-13.9a49.76,49.76,0,0,1-29.8,11.17c-18.27.62-21.58-1.17-21.58-1.17s38.12,6.56,58-19.19c0,0-25.58,18.13-42.94,16.53s-19.56-4.15-19.56-4.15,27.7,8.78,48.12-6,19.12-19.08,19.12-19.08S828.39,591,802.86,590s-20.61-.69-20.61-.69,35.31,2.17,51-13.63,10.93-22.39,10.93-22.39.15,10.69-11.22,17.91-40.2,11.29-40.2,11.29,37.7-8.31,44.7-17.72,5.19-18,5.19-18,1.39,18.23-23.86,24.23c0,0,22.31-8.19,22.65-26.95,0,0-2.47,14.89-21,22,0,0,20.41-12.21,19-28.81,0,0-.84,11.84-13,20.26,0,0,11.24-10,12-23.91a58.5,58.5,0,0,1-21.42,24s11.49-15.37,20.81-25.39a55.85,55.85,0,0,0-12.38,10.49c-6.13,6.89-6.19,8.22-6.19,8.22s5.37-13.47,14.86-20.38c0,0-9.72,6.1-15.72,14.36,0,0,.69-8.45,10-15.74l.42-.32s-15.28,8.1-23.5,21.89-7.53,17.18-7.53,17.18,3.36-20.48,18.43-33.43c0,0-9.32,6-15,14.69a159,159,0,0,0-9.39,16.35s3.84-26.92,32.86-42.57c0,0-17.29,7-26.83,17.7s-17.62,36.76-17.62,36.76,4.54-35.15,34.67-57c0,0-20,9.69-29.73,31,0,0,6.79-26.35,23.08-36.91,0,0-10.36,2.19-19.54,12.52s-26.1,41.37-23,59.55c0,0-5.22-51.57,31.41-72.76,0,0-18.7,6.63-30.63,22.2s-22.19,51-22.19,51,6.87-45.49,32.22-68.71c0,0,7.71-7.16,14-9,0,0-7.59-4.77-20.68,3.38S743.92,539.11,735,551.94s-18.28,33.65-18.28,33.65,27.47-65.74,54.8-77.48c0,0-16-1.22-29,9s-45.95,42.74-49.88,73.67c0,0,2.42-32.09,28.64-58.31,0,0,14-13.86,23.16-19.31,0,0-21.36,8.42-34.26,19.34s-33.49,47.58-33.49,47.58,14.45-34.67,29.89-46.83c0,0-11,4.8-19.05,12.18s-19.61,26.34-25,39.42c0,0,10.34-26.82,17.05-35.47s12-11.52,12-11.52-29.08,14.86-38.07,28.69-16.38,43.24-24.37,50.34c0,0,15.1-21.58,6.8-40.61s-19.61-25.37-19.61-25.37S642,571,635.76,595.24c0,0-3.74,12.68-11.24,18,0,0,.47-26.42,15.78-40.9S649.4,543,649.4,543s4.41,18.28-10.61,28.21-21.23,38.56-18,42.2c0,0-5.4-16.16,2.78-28.71,0,0-9.46,11-11.57,22.34s-6.52,11.06-6.52,11.06A40.57,40.57,0,0,0,612.52,600c1.44-10.88,5.81-26.9,12.8-31.75s9-17,9-17-3.44,10.79-8.57,14.63-14,8.62-14.36,23-10.15,26.94-15.73,30.47c0,0,14.94-20,5.33-42.47,0,0,9.12,21.53-7.74,42.78,0,0,12.89-27.1,7.15-47.7,0,0,4.5,23-8.32,44.3a28.16,28.16,0,0,0-.41-30.32s7.21,14.44-1.6,28.3c0,0,3.65-6-.61-16.34s-2.9-22.36,4.55-24.67c0,0-10.18,3.52-7.92,19.22s-7.58,29-7.58,29S572.73,627.64,578,631.24Z" transform="translate(-121.64 -170.55)"/><path class="cls-4" d="M752.77,599.4s6.59,4.72,19.68,4.07c0,0-16.46,3.18-27.47-.24Z" transform="translate(-121.64 -170.55)"/><path class="cls-5" d="M736.46,607.07s8,7.6,29.64,8.43S793.33,614,793.33,614s-37.74,12.77-66.48-1.83Z" transform="translate(-121.64 -170.55)"/><path class="cls-6" d="M756.56,593.94a23.19,23.19,0,0,0,4.2-16.63s-3.12,13.23-13.71,21.14Z" transform="translate(-121.64 -170.55)"/><path class="cls-7" d="M717.65,611.28s9.34-6.65,12.28-28.94c0,0-5.82,23.27-16.12,30.89Z" transform="translate(-121.64 -170.55)"/><path class="cls-8" d="M678.75,623.78s8.57-11.6,7.53-22.18a99,99,0,0,1,.72-21.75s-2.31,17-3.75,22.52-13.35,24.51-13.35,24.51Z" transform="translate(-121.64 -170.55)"/><path class="cls-9" d="M805.47,562.89S687.12,660,549.21,619.08c0,0-18.81,3.08-14.79,6.16S702.88,659,805.47,562.89Z" transform="translate(-121.64 -170.55)"/><path class="cls-10" d="M280.21,311.44s-33.35-3.15-22.62,101.93S418,587.71,418,587.71,242.45,474.41,280.21,311.44Z" transform="translate(-121.64 -170.55)"/><path class="cls-11" d="M358.43,303.52c19.25-50.11,153.9-65.46,229.13-4.19-25.73-67.2-133.55-115-148.83-111.15-24.61,2.16-7-4.25-21.31-12.2-48.89-26-73.43,50-82.1,41.79s-4.26-35.09-.75-40.06S314.5,188,308.32,208.86s-9.27,52.06,25,48c-13.33,19.62-26.15,10.29-38.59,43.44-6.54,17.45,7.33,17.26-1,44.4s24.47,24.49,23,54.62-9.37,16.66,29.18,27.86c40.38,1.36,4.85-20.18-1.69-57.73C325.25,316.7,353.57,318.6,358.43,303.52Zm96.44,52.33c0-1.13.73-6-.42-3.69-.53-.35-1.73,1.4-2.57,2.47-26.9-5.73-32.5,6.41-32.5,6.41-6,9.89,19.86,24.68,36.7,19.46,3.94-3.56,7.31-4.34,12.34-11.6.56-3,4.18-2.68,6.54-3.39C469.83,364.86,454.82,357,454.87,355.85Zm-85.59-41c-1.91-3.08.35,3-1.23,4.24-3.12-4.34-18.5-9.36-18.6,4.13-8.84,7,3.78,36.12,22.11,33.17,13.43-14.13-.4-32.59-.4-32.59S371.2,317.94,369.28,314.87Z" transform="translate(-121.64 -170.55)"/><path class="cls-12" d="M492.71,618.94S231.63,553.2,229.08,347.22c-33.41,34.45-8.45,63.68-27.52,77.9-26.31-3.88-109.55-64.69-68.95-20.74C343.94,667.69,490.88,618.44,492.71,618.94Z" transform="translate(-121.64 -170.55)"/><path class="cls-13" d="M525.86,604.48c-44.8,11.74-97.85,5.19-140.34-55.29s-63.39-177.53-8.71-73.32S534.11,602.32,525.86,604.48Z" transform="translate(-121.64 -170.55)"/><path class="cls-14" d="M319.92,619.52c-117.41-61.89,47.17,28.9,158.78,6.32,78-1.05-133.07,2.2-95.5,131.06-42.47-70.79-57.16-51.71-132.23-37C114.11,743.8,297.69,692.34,319.92,619.52Z" transform="translate(-121.64 -170.55)"/><path class="cls-15" d="M504.36,589.65s-202-187.79-92-288.86-12.2,7.71-4,86.77S504.36,589.65,504.36,589.65Z" transform="translate(-121.64 -170.55)"/><path class="cls-16" d="M418.76,473.83c-5.56-19.53-3.17-42.84,22.95-62s77.23-29.41,32.06-4.49S419.78,477.42,418.76,473.83Z" transform="translate(-121.64 -170.55)"/><path class="cls-17" d="M412.62,327.67c-30,23.73,13.11-9.07,20.16-41.12,8.82-20.69-14.92,35.33,23.42,40.44-23.6,2.95-20.28,9-25.15,30.55C421.4,396.39,429.22,342,412.62,327.67Z" transform="translate(-121.64 -170.55)"/><path class="cls-18" d="M515.1,337.55s13.6,5.36-11.31,44.14S407,417.91,407,417.91,497.65,408.43,515.1,337.55Z" transform="translate(-121.64 -170.55)"/><path class="cls-19" d="M412.31,326.66s93.3-6,107.13-76.21c9.25,13.87-1.12,22.28,4.5,28.33,9.23.33,41.49-15.2,24.85-2.74C460.05,352.67,413,326.6,412.31,326.66Z" transform="translate(-121.64 -170.55)"/></g><g id="Texte"><path class="cls-20" d="M266.06,688.54q-6-5.55-10.43-1.55l-3.33-3.33,20.2-20.2,3.11,3.11q-4,4.88,1.77,10.65l93.39,93.28q7.83-8.94-24.8-50.89l2.88-2.88,44.84,44.83-32,32-3.11-3.1q4-4.89-.67-10Z" transform="translate(-121.64 -170.55)"/><path class="cls-20" d="M416.33,738.92l-1.56-1.55q0-5.32-17.31-20.86l-5.55,5.54q15.09,17.76,20.64,17.54l1.56,1.55-14.43,14.43L398.13,754a7.1,7.1,0,0,0,1.55-4.44q0-2.45-99-113.87l11.54-11.54q113.41,97,115.53,97.33a5.19,5.19,0,0,0,4.1-1.22l1.56,1.55ZM382.7,712.18l4.33-4.33-38.18-33.74Z" transform="translate(-121.64 -170.55)"/><path class="cls-20" d="M399.46,678.55l5.77-18.2q32.4,36.84,37.62,35.18t2.11-5.66A128.28,128.28,0,0,0,418.1,663q-7.55-6.22-12.43-7.11-31.74-6.87-43.06-14.65l-22.19-21.75q-9.1-14,1.77-24.86,12.44-12,28.41,2.67l14.87,13.54-4,18.2q-13.1-13.54-24.86-24.86-5.55-5.55-8.21-3.11t2.66,7.77l22.42,22q29.52,6.88,43.28,12.65t30.85,25.08q19.1,21.32,5.55,34.41-13.55,12.21-32.46-3.17Z" transform="translate(-121.64 -170.55)"/><path class="cls-20" d="M364,571.13,395,540.05l39.28,39.29-3.77,3.77q-24.86-22.64-34.4-22l91,91q5.33,5.33,11.54,1.78l1.55,1.55-20.64,20.64L478,674.56q4-6.66-2-11.77L385.25,572q-1.32,9.78,21.09,35.29l-3.11,3.11Z" transform="translate(-121.64 -170.55)"/><path class="cls-20" d="M461.83,487.45q-3.56-3.56-7.55.44L451.39,485l34-34,36.4,36.4-3.1,3.11q-18.87-15.76-28.52-18.76t-16.54,3.44L511.32,513q8-4-10.43-22.86l3.33-2.88,45.5,45.5-3.11,3.11q-18-18-25.52-13.1L568.36,570q6.45,6.43,8,1.77l3.56,3.11-18.65,18.64-3.55-3.1q5.1-2.45-1.11-8.22Z" transform="translate(-121.64 -170.55)"/><path class="cls-20" d="M503.55,451.94q-6.65-6.66-10-2L490,446.39l20.86-20.87q13.1-6.87,28.85,1.78l24.86,24.86q10.42,11.32,6.22,19.53l4,4q13.55.21,34.4,22.41t23.53,18.2l3.11,3.11L620.75,534.5l-6.22-6.21-27.74-27.75q-16-16.41-20.64-11.76l41.28,41.28q5.55,5.55,8.43,3.11l3.11,3.11-18.42,18-3.33-3.33q2.44-2.45-2.89-8.22Zm46.61,10.21-19.53-19.54q-8.65-7.32-12.87-2.21L552.38,475Q558.61,471,550.16,462.15Z" transform="translate(-121.64 -170.55)"/><path class="cls-20" d="M657.59,497.66,656,496.11q0-5.34-17.32-20.87l-5.54,5.55q15.09,17.76,20.64,17.53l1.55,1.56-14.43,14.43-1.55-1.56a7,7,0,0,0,1.55-4.44q0-2.43-99-113.86l11.54-11.54q113.43,97,115.53,97.33a5.25,5.25,0,0,0,4.11-1.22l1.55,1.55ZM624,470.91l4.33-4.32-38.17-33.74Z" transform="translate(-121.64 -170.55)"/><path class="cls-20" d="M663.36,457.26l-64.81-64.81Q569,365.6,583.9,351.17q14.21-14.21,41.51,14l-.67,21.53q-27.07-27.07-30-24.19T609.2,381.8l57.27,57.26q17.31,18.21,20.2,15.32t-4.44-13.32L655.15,414q-4-1.77-7.77,1.56l-3.11-3.11,18-18,2.66,2.66a6.82,6.82,0,0,0-.66,8.22l27.08,27.07q15.09,17.33,4.21,31.3Q681.34,474.8,663.36,457.26Z" transform="translate(-121.64 -170.55)"/><path class="cls-20" d="M615.42,336.08q-3.33-4.66-8.44-1.33l-2.88-2.89,10.43-10.43,51.72,40.17-40.4-51.49,13.54-13.54,2.89,2.88c-1.49,2.37.74,6.37,6.65,12l90.34,90.34c2.51,1.92,5,2,7.32.22l3.11,3.1L734.83,420l-3.11-3.11c1.93-2.22,1.7-4.51-.66-6.88L668.47,347.4l37.95,53-53.71-37.29,62.14,62.15q4.23,4.67,8.66.67l2.66,2.66L713.3,441.5l-2.22-2.66q3.33-4.21-1.55-8.65Z" transform="translate(-121.64 -170.55)"/><path class="cls-20" d="M655.81,293.46q-3.54-3.54-8.87-.89L645.38,291l34-34,36.4,36.4-3.11,3.11q-18.86-15.76-28.52-18.76t-16.53,3.44L705.31,319q8-4-9.77-23.09l2.67-2.66,45.5,45.5-3.11,3.11q-18-18-25.52-13.1l49.49,49.5q5.32-5.33,2.66-16.65t-19.53-30l2.89-2.89,37.73,37.74-33.07,33.07L753,397.34q3.76-3.33-2.44-9.1Z" transform="translate(-121.64 -170.55)"/><path class="cls-20" d="M695.54,256c-2.21-3.11-5-3.55-8.43-1.33l-2.89-2.89L700,236l70.58,53.26-55-55q-3.33-3.33-6.44-1.11L706,230l13.54-13.54,2.88,2.89q-2.22,3.55,6.66,12l97.22,97.22L815.84,339l-80.34-59,62.37,62.37q4.21,5.55,8,1.33l2.66,2.67-15.09,15.09-2.22-2.66q3.33-4.22-1.56-8.66Z" transform="translate(-121.64 -170.55)"/><path class="cls-20" d="M726,209.12,757,178.05l39.28,39.28-3.77,3.77q-24.87-22.64-34.41-22l91,91q5.33,5.33,11.54,1.78l1.55,1.55L841.59,314.1,840,312.55q4-6.66-2-11.76L747.26,210q-1.34,9.77,21.08,35.29l-3.1,3.11Z" transform="translate(-121.64 -170.55)"/><path class="cls-20" d="M266.06,688.54q-6-5.55-10.43-1.55l-3.33-3.33,20.2-20.2,3.11,3.11q-4,4.88,1.77,10.65l93.39,93.28q7.83-8.94-24.8-50.89l2.88-2.88,44.84,44.83-32,32-3.11-3.1q4-4.89-.67-10Z" transform="translate(-121.64 -170.55)"/><path class="cls-20" d="M416.33,738.92l-1.56-1.55q0-5.32-17.31-20.86l-5.55,5.54q15.09,17.76,20.64,17.54l1.56,1.55-14.43,14.43L398.13,754a7.1,7.1,0,0,0,1.55-4.44q0-2.45-99-113.87l11.54-11.54q113.41,97,115.53,97.33a5.19,5.19,0,0,0,4.1-1.22l1.56,1.55ZM382.7,712.18l4.33-4.33-38.18-33.74Z" transform="translate(-121.64 -170.55)"/><path class="cls-20" d="M399.46,678.55l5.77-18.2q32.4,36.84,37.62,35.18t2.11-5.66A128.28,128.28,0,0,0,418.1,663q-7.55-6.22-12.43-7.11-31.74-6.87-43.06-14.65l-22.19-21.75q-9.1-14,1.77-24.86,12.44-12,28.41,2.67l14.87,13.54-4,18.2q-13.1-13.54-24.86-24.86-5.55-5.55-8.21-3.11t2.66,7.77l22.42,22q29.52,6.88,43.28,12.65t30.85,25.08q19.1,21.32,5.55,34.41-13.55,12.21-32.46-3.17Z" transform="translate(-121.64 -170.55)"/><path class="cls-20" d="M364,571.13,395,540.05l39.28,39.29-3.77,3.77q-24.86-22.64-34.4-22l91,91q5.33,5.33,11.54,1.78l1.55,1.55-20.64,20.64L478,674.56q4-6.66-2-11.77L385.25,572q-1.32,9.78,21.09,35.29l-3.11,3.11Z" transform="translate(-121.64 -170.55)"/><path class="cls-20" d="M461.83,487.45q-3.56-3.56-7.55.44L451.39,485l34-34,36.4,36.4-3.1,3.11q-18.87-15.76-28.52-18.76t-16.54,3.44L511.32,513q8-4-10.43-22.86l3.33-2.88,45.5,45.5-3.11,3.11q-18-18-25.52-13.1L568.36,570q6.45,6.43,8,1.77l3.56,3.11-18.65,18.64-3.55-3.1q5.1-2.45-1.11-8.22Z" transform="translate(-121.64 -170.55)"/><path class="cls-20" d="M503.55,451.94q-6.65-6.66-10-2L490,446.39l20.86-20.87q13.1-6.87,28.85,1.78l24.86,24.86q10.42,11.32,6.22,19.53l4,4q13.55.21,34.4,22.41t23.53,18.2l3.11,3.11L620.75,534.5l-6.22-6.21-27.74-27.75q-16-16.41-20.64-11.76l41.28,41.28q5.55,5.55,8.43,3.11l3.11,3.11-18.42,18-3.33-3.33q2.44-2.45-2.89-8.22Zm46.61,10.21-19.53-19.54q-8.65-7.32-12.87-2.21L552.38,475Q558.61,471,550.16,462.15Z" transform="translate(-121.64 -170.55)"/><path class="cls-20" d="M657.59,497.66,656,496.11q0-5.34-17.32-20.87l-5.54,5.55q15.09,17.76,20.64,17.53l1.55,1.56-14.43,14.43-1.55-1.56a7,7,0,0,0,1.55-4.44q0-2.43-99-113.86l11.54-11.54q113.43,97,115.53,97.33a5.25,5.25,0,0,0,4.11-1.22l1.55,1.55ZM624,470.91l4.33-4.32-38.17-33.74Z" transform="translate(-121.64 -170.55)"/><path class="cls-20" d="M663.36,457.26l-64.81-64.81Q569,365.6,583.9,351.17q14.21-14.21,41.51,14l-.67,21.53q-27.07-27.07-30-24.19T609.2,381.8l57.27,57.26q17.31,18.21,20.2,15.32t-4.44-13.32L655.15,414q-4-1.77-7.77,1.56l-3.11-3.11,18-18,2.66,2.66a6.82,6.82,0,0,0-.66,8.22l27.08,27.07q15.09,17.33,4.21,31.3Q681.34,474.8,663.36,457.26Z" transform="translate(-121.64 -170.55)"/><path class="cls-20" d="M615.42,336.08q-3.33-4.66-8.44-1.33l-2.88-2.89,10.43-10.43,51.72,40.17-40.4-51.49,13.54-13.54,2.89,2.88c-1.49,2.37.74,6.37,6.65,12l90.34,90.34c2.51,1.92,5,2,7.32.22l3.11,3.1L734.83,420l-3.11-3.11c1.93-2.22,1.7-4.51-.66-6.88L668.47,347.4l37.95,53-53.71-37.29,62.14,62.15q4.23,4.67,8.66.67l2.66,2.66L713.3,441.5l-2.22-2.66q3.33-4.21-1.55-8.65Z" transform="translate(-121.64 -170.55)"/><path class="cls-20" d="M655.81,293.46q-3.54-3.54-8.87-.89L645.38,291l34-34,36.4,36.4-3.11,3.11q-18.86-15.76-28.52-18.76t-16.53,3.44L705.31,319q8-4-9.77-23.09l2.67-2.66,45.5,45.5-3.11,3.11q-18-18-25.52-13.1l49.49,49.5q5.32-5.33,2.66-16.65t-19.53-30l2.89-2.89,37.73,37.74-33.07,33.07L753,397.34q3.76-3.33-2.44-9.1Z" transform="translate(-121.64 -170.55)"/><path class="cls-20" d="M695.54,256c-2.21-3.11-5-3.55-8.43-1.33l-2.89-2.89L700,236l70.58,53.26-55-55q-3.33-3.33-6.44-1.11L706,230l13.54-13.54,2.88,2.89q-2.22,3.55,6.66,12l97.22,97.22L815.84,339l-80.34-59,62.37,62.37q4.21,5.55,8,1.33l2.66,2.67-15.09,15.09-2.22-2.66q3.33-4.22-1.56-8.66Z" transform="translate(-121.64 -170.55)"/><path class="cls-20" d="M726,209.12,757,178.05l39.28,39.28-3.77,3.77q-24.87-22.64-34.41-22l91,91q5.33,5.33,11.54,1.78l1.55,1.55L841.59,314.1,840,312.55q4-6.66-2-11.76L747.26,210q-1.34,9.77,21.08,35.29l-3.1,3.11Z" transform="translate(-121.64 -170.55)"/><path class="cls-21" d="M266.06,688.54q-6-5.55-10.43-1.55l-3.33-3.33,20.2-20.2,3.11,3.11q-4,4.88,1.77,10.65l93.39,93.28q7.83-8.94-24.8-50.89l2.88-2.88,44.84,44.83-32,32-3.11-3.1q4-4.89-.67-10Z" transform="translate(-121.64 -170.55)"/><path class="cls-21" d="M416.33,738.92l-1.56-1.55q0-5.32-17.31-20.86l-5.55,5.54q15.09,17.76,20.64,17.54l1.56,1.55-14.43,14.43L398.13,754a7.1,7.1,0,0,0,1.55-4.44q0-2.45-99-113.87l11.54-11.54q113.41,97,115.53,97.33a5.19,5.19,0,0,0,4.1-1.22l1.56,1.55ZM382.7,712.18l4.33-4.33-38.18-33.74Z" transform="translate(-121.64 -170.55)"/><path class="cls-21" d="M399.46,678.55l5.77-18.2q32.4,36.84,37.62,35.18t2.11-5.66A128.28,128.28,0,0,0,418.1,663q-7.55-6.22-12.43-7.11-31.74-6.87-43.06-14.65l-22.19-21.75q-9.1-14,1.77-24.86,12.44-12,28.41,2.67l14.87,13.54-4,18.2q-13.1-13.54-24.86-24.86-5.55-5.55-8.21-3.11t2.66,7.77l22.42,22q29.52,6.88,43.28,12.65t30.85,25.08q19.1,21.32,5.55,34.41-13.55,12.21-32.46-3.17Z" transform="translate(-121.64 -170.55)"/><path class="cls-21" d="M364,571.13,395,540.05l39.28,39.29-3.77,3.77q-24.86-22.64-34.4-22l91,91q5.33,5.33,11.54,1.78l1.55,1.55-20.64,20.64L478,674.56q4-6.66-2-11.77L385.25,572q-1.32,9.78,21.09,35.29l-3.11,3.11Z" transform="translate(-121.64 -170.55)"/><path class="cls-21" d="M461.83,487.45q-3.56-3.56-7.55.44L451.39,485l34-34,36.4,36.4-3.1,3.11q-18.87-15.76-28.52-18.76t-16.54,3.44L511.32,513q8-4-10.43-22.86l3.33-2.88,45.5,45.5-3.11,3.11q-18-18-25.52-13.1L568.36,570q6.45,6.43,8,1.77l3.56,3.11-18.65,18.64-3.55-3.1q5.1-2.45-1.11-8.22Z" transform="translate(-121.64 -170.55)"/><path class="cls-21" d="M503.55,451.94q-6.65-6.66-10-2L490,446.39l20.86-20.87q13.1-6.87,28.85,1.78l24.86,24.86q10.42,11.32,6.22,19.53l4,4q13.55.21,34.4,22.41t23.53,18.2l3.11,3.11L620.75,534.5l-6.22-6.21-27.74-27.75q-16-16.41-20.64-11.76l41.28,41.28q5.55,5.55,8.43,3.11l3.11,3.11-18.42,18-3.33-3.33q2.44-2.45-2.89-8.22Zm46.61,10.21-19.53-19.54q-8.65-7.32-12.87-2.21L552.38,475Q558.61,471,550.16,462.15Z" transform="translate(-121.64 -170.55)"/><path class="cls-21" d="M657.59,497.66,656,496.11q0-5.34-17.32-20.87l-5.54,5.55q15.09,17.76,20.64,17.53l1.55,1.56-14.43,14.43-1.55-1.56a7,7,0,0,0,1.55-4.44q0-2.43-99-113.86l11.54-11.54q113.43,97,115.53,97.33a5.25,5.25,0,0,0,4.11-1.22l1.55,1.55ZM624,470.91l4.33-4.32-38.17-33.74Z" transform="translate(-121.64 -170.55)"/><path class="cls-21" d="M663.36,457.26l-64.81-64.81Q569,365.6,583.9,351.17q14.21-14.21,41.51,14l-.67,21.53q-27.07-27.07-30-24.19T609.2,381.8l57.27,57.26q17.31,18.21,20.2,15.32t-4.44-13.32L655.15,414q-4-1.77-7.77,1.56l-3.11-3.11,18-18,2.66,2.66a6.82,6.82,0,0,0-.66,8.22l27.08,27.07q15.09,17.33,4.21,31.3Q681.34,474.8,663.36,457.26Z" transform="translate(-121.64 -170.55)"/><path class="cls-21" d="M615.42,336.08q-3.33-4.66-8.44-1.33l-2.88-2.89,10.43-10.43,51.72,40.17-40.4-51.49,13.54-13.54,2.89,2.88c-1.49,2.37.74,6.37,6.65,12l90.34,90.34c2.51,1.92,5,2,7.32.22l3.11,3.1L734.83,420l-3.11-3.11c1.93-2.22,1.7-4.51-.66-6.88L668.47,347.4l37.95,53-53.71-37.29,62.14,62.15q4.23,4.67,8.66.67l2.66,2.66L713.3,441.5l-2.22-2.66q3.33-4.21-1.55-8.65Z" transform="translate(-121.64 -170.55)"/><path class="cls-21" d="M655.81,293.46q-3.54-3.54-8.87-.89L645.38,291l34-34,36.4,36.4-3.11,3.11q-18.86-15.76-28.52-18.76t-16.53,3.44L705.31,319q8-4-9.77-23.09l2.67-2.66,45.5,45.5-3.11,3.11q-18-18-25.52-13.1l49.49,49.5q5.32-5.33,2.66-16.65t-19.53-30l2.89-2.89,37.73,37.74-33.07,33.07L753,397.34q3.76-3.33-2.44-9.1Z" transform="translate(-121.64 -170.55)"/><path class="cls-21" d="M695.54,256c-2.21-3.11-5-3.55-8.43-1.33l-2.89-2.89L700,236l70.58,53.26-55-55q-3.33-3.33-6.44-1.11L706,230l13.54-13.54,2.88,2.89q-2.22,3.55,6.66,12l97.22,97.22L815.84,339l-80.34-59,62.37,62.37q4.21,5.55,8,1.33l2.66,2.67-15.09,15.09-2.22-2.66q3.33-4.22-1.56-8.66Z" transform="translate(-121.64 -170.55)"/><path class="cls-21" d="M726,209.12,757,178.05l39.28,39.28-3.77,3.77q-24.87-22.64-34.41-22l91,91q5.33,5.33,11.54,1.78l1.55,1.55L841.59,314.1,840,312.55q4-6.66-2-11.76L747.26,210q-1.34,9.77,21.08,35.29l-3.1,3.11Z" transform="translate(-121.64 -170.55)"/></g></svg>