<svg id="Calque_1" data-name="Calque 1" xmlns="http://www.w3.org/2000/svg" viewBox="0 0 777.08 867.31">
  <defs>
    <style>
      .cls-1, .cls-2 {
        fill: none;
        stroke: #1d1d1b;
        stroke-miterlimit: 10;
      }

      .cls-1 {
        stroke-width: 10px;
      }

      .cls-2 {
        stroke-width: 11px;
      }
    </style>
  </defs>
  <g>
    <path class="cls-1" d="M771.14,189.15a276.68,276.68,0,0,1,3,40.76c0,151.41-122.74,274.15-274.15,274.15S225.85,381.32,225.85,229.91a276.69,276.69,0,0,1,3.3-42.67" transform="translate(-111.46 -48)"/>
    <path class="cls-1" d="M770.85,189.19C750.36,320.33,636.9,420.67,500,420.67c-137.21,0-250.89-100.81-271-232.4" transform="translate(-111.46 -48)"/>
  </g>
  <g>
    <path class="cls-1" d="M120.67,861.61a256.18,256.18,0,0,1-4.21-46.28c0-171.91,171.72-311.27,383.54-311.27S883.54,643.42,883.54,815.33a256,256,0,0,1-4.62,48.45" transform="translate(-111.46 -48)"/>
    <path class="cls-1" d="M121.08,861.57C149.75,712.67,308.48,598.75,500,598.75c192,0,351,114.45,379.12,263.87" transform="translate(-111.46 -48)"/>
  </g>
  <path class="cls-1" d="M668,236.83c0,101.53-167.4,183.84-167.4,183.84s-167.4-82.31-167.4-183.84S408.16,53,500.61,53,668,135.3,668,236.83Z" transform="translate(-111.46 -48)"/>
  <path class="cls-2" d="M301.8,754.28c0-85.9,198.81-155.53,198.81-155.53s198.81,69.63,198.81,155.53-89,155.53-198.81,155.53S301.8,840.17,301.8,754.28Z" transform="translate(-111.46 -48)"/>
  <path class="cls-1" d="M571.08,299.24c0,67.06-70.47,121.43-70.47,121.43s-70.47-54.37-70.47-121.43,31.55-121.43,70.47-121.43S571.08,232.18,571.08,299.24Z" transform="translate(-111.46 -48)"/>
  <polyline class="cls-2" points="403.25 556.91 403.48 556.91 388.47 841.27 373.46 556.91 373.63 556.91"/>
</svg>
