<svg xmlns="http://www.w3.org/2000/svg" viewBox="0 0 1000 1000">
  <defs>
    <style>
      .cls-1 {
        fill: none;
        stroke-width: 40px;
      }

      .cls-1, .cls-2 {
        stroke: #000;
        stroke-miterlimit: 10;
      }
    </style>
  </defs>
  <g id="Lada">
    <polygon class="cls-1" points="442.22 123.09 235.97 242.16 139.11 459.72 188.63 692.67 365.6 852.02 602.45 876.91 808.69 757.84 905.56 540.28 856.04 307.33 679.06 147.98 442.22 123.09"/>
    <path class="cls-2" d="M503.48,502.45c203.4-142.81,181.24,170.58-216.64,225,0,0,43.82,1.57,76.66,16.94C738.35,645.37,726.69,345.41,503.48,502.45Z"/>
    <path class="cls-2" d="M633.42,468.27s187.72,125.59,70,284.91c-10.9-159-76.81-187.3-76.81-187.3Z"/>
    <path class="cls-2" d="M541.19,531.34c-203.4,142.82-181.25-170.57,216.64-225,0,0-43.82-1.57-76.66-16.94C306.31,388.42,318,688.38,541.19,531.34Z"/>
    <path class="cls-2" d="M411.25,565.53s-187.72-125.6-70-284.92c10.9,159,76.81,187.3,76.81,187.3Z"/>
  </g>
</svg>
