<svg id="Calque_1" data-name="Calque 1" xmlns="http://www.w3.org/2000/svg" viewBox="0 0 899.32 1011.5"><defs><style>.cls-1{fill:none;stroke:#000;stroke-miterlimit:10;stroke-width:15px;}</style></defs><polygon class="cls-1" points="611.89 224.76 287.43 224.76 125.2 505.75 287.43 786.74 611.89 786.74 774.12 505.75 611.89 224.76"/><path class="cls-1" d="M961,603.66S991.67,774.32,1150.33,697s52,308-189.33,341.33" transform="translate(-510.34 -34.25)"/><path class="cls-1" d="M961,603.66S930.33,774.32,771.67,697s-52,308,189.33,341.33" transform="translate(-510.34 -34.25)"/><path class="cls-1" d="M961,476.34S930.33,305.68,771.67,383,719.67,75,961,41.68" transform="translate(-510.34 -34.25)"/><path class="cls-1" d="M961,476.34S991.67,305.68,1150.33,383,1202.33,75,961,41.68" transform="translate(-510.34 -34.25)"/><path class="cls-1" d="M1007.3,524s132.47-111.9-13.84-210.64,240.74-199,390.27-6.7" transform="translate(-510.34 -34.25)"/><path class="cls-1" d="M1007.3,524s163.13-58.78,175.5,117.3,292.73-109,200.93-334.64" transform="translate(-510.34 -34.25)"/><path class="cls-1" d="M1006.3,567.66s163.13,58.77,175.5-117.3,292.73,109,200.93,334.63" transform="translate(-510.34 -34.25)"/><path class="cls-1" d="M1006.3,567.66s132.47,111.89-13.84,210.63,240.74,199,390.27,6.7" transform="translate(-510.34 -34.25)"/><path class="cls-1" d="M912.7,572.33S780.23,684.22,926.54,783s-240.74,199-390.27,6.7" transform="translate(-510.34 -34.25)"/><path class="cls-1" d="M912.7,572.33S749.57,631.11,737.2,455,444.47,564,536.27,789.67" transform="translate(-510.34 -34.25)"/><path class="cls-1" d="M913.7,528.7S750.57,469.93,738.2,646,445.47,537,537.27,311.37" transform="translate(-510.34 -34.25)"/><path class="cls-1" d="M913.7,528.7S781.23,416.81,927.54,318.07s-240.74-199-390.27-6.7" transform="translate(-510.34 -34.25)"/></svg>