<svg id="Calque_1" data-name="Calque 1" xmlns="http://www.w3.org/2000/svg" viewBox="0 0 653.95 845.72"><defs><style>.cls-1{fill:none;stroke:#1d1d1b;stroke-miterlimit:10;stroke-width:10px;}</style></defs><path class="cls-1" d="M212.38,1000s-1.51-4.69,0-7.12,7.57-10.29,10-12.41-2.43-32.41,0-34.23,31.19-33.31,30-49.36c0,0,22.71-44.83,23.62-64.21s22.72-37.25,35.13-40.28S418.63,753,420.45,753.92s9.69,3,9.08,6.67S442,756,441.65,753.91s-8.48,1.53-8.48,1.53,22.41-13.33,13.93-36c6.36-8.79-14.84,17.26-14.84,17.26s17-38.16-16.05-69.66c-8.79,45.13-38.77,45.43-38.77,45.43s57.85-41.19,8.48-82.07c-7.27,53.3-26.95,60.27-26.95,60.27s17.87-31.5,9.08-44.83-15.75-22.71-28.77-30.59c1.82,30-31.19,56.94-31.19,56.94s21.8-35.13,7.57-56.94c-10.3,4.24-36.35-33-38.16-43.91-6.06,15.44-54.05,33.61-65.79,31.19,11.88-8.18,46.71-5.75,62.15-46.34-13-40-1.82-111.45,4.85-132.95,0,0-24.53,35.73-83.9,38.46,0,0,83.29-34.83,104.49-115.39,22.62-45.73,34.83-55.73,34.83-55.73s-26.65-27-17-44.82c7.27,7.27-3,19.08,27.56,33.31,58.45-59,118.72-64.2,122.06-60.87s-153.25-50.28-190.5,70c0,0-12.12-48,78.74-96.39s115.69-2.65,128.11,29.15c24.23-1.51,25.74-3.63,25.74-3.63s47.55-47.25,62.39-52.09,42.1,9.69,48.46,63.9c45.43,24.84,102.07,95.4,102.07,95.4s56.94,15.45,80.26-9.08c0,21.5-73.2,23.32-73.2,23.32s30.69,37.55,76.33,48.25c-19,8.48-58.56-6.86-58.56-6.86s60.57,81,21.61,165.36c-3.64,42.81-29.08,67.24-29.08,67.24s24.23-38.36,18.58-55.32c-14.94,20-52.1,38.16-52.1,38.16s-36.54,56.73-27.25,97.32c-9.49-7.88-8.28-51.09-8.28-51.09s-22.21,49.07-44.62,65.62c14.33-27.46,17.16-17.76,25-54.31-4.28,5.57-18.57,3.23-44.62,69.25,0,0,5.45-27.05,11.91-47.44-6.23-1.39-38.16,24.63-17.56,60,3.23,12.72-13.73-16.35-13.73-16.35a32.5,32.5,0,0,0-2.22,24.83s-5.45-4.44-9.29-24.43c0,0-20.19,54.92,32.91,50.48,7.27-13.93,11.91-7.07,13.12-5.45s14.74,10.09,32.11,14.94,24,14.54,24,14.54,47.86,6.05,85.21,50.68c23.22,57.94,21.2,154.66,21.2,154.66Z" transform="translate(-166.81 -159.29)"/></svg>