<svg id="Calque_1" data-name="Calque 1" xmlns="http://www.w3.org/2000/svg" viewBox="0 0 904.8 684.51">
  <defs>
    <style>
      .cls-1 {
        opacity: 0.35;
      }
    </style>
  </defs>
  <polygon class="cls-1" points="435.46 84.12 154.15 288.5 261.6 619.21 609.32 619.21 716.77 288.5 435.46 84.12"/>
  <polygon class="cls-1" points="435.46 160.72 227 312.18 306.62 557.23 564.29 557.23 643.92 312.18 435.46 160.72"/>
  <polygon class="cls-1" points="435.46 248.67 310.64 339.35 358.32 486.08 512.6 486.08 560.27 339.35 435.46 248.67"/>
  <polygon class="cls-1" points="435.46 305.62 364.8 356.95 391.79 440.01 479.13 440.01 506.11 356.95 435.46 305.62"/>
  <g>
    <path d="M394.46,130.69h5.32v37.43h20.73v4.55H394.46Z" transform="translate(-64.54 -127.1)"/>
    <path d="M428.64,157.05c0-10.11,7.55-16.25,15.87-16.25,9,0,14.21,5.82,14.21,14.59a21.3,21.3,0,0,1-.26,3.2h-26.3v-4.1h23.17L454,156c0-7.35-3.65-11-9.34-11s-10.75,4.35-10.75,12.09c0,8.07,5.24,12.16,12.16,12.16a17,17,0,0,0,9.47-2.94l1.92,3.45a21.29,21.29,0,0,1-12,3.72C436.06,173.44,428.64,167.42,428.64,157.05Z" transform="translate(-64.54 -127.1)"/>
    <path d="M467.81,164.6c0-7,6.52-10.36,22.59-11.64-.19-4.23-2.24-7.81-8.26-7.81-4,0-8,1.92-10.88,3.71l-2.11-3.58c3.2-2.05,8.45-4.48,13.89-4.48,8.51,0,12.67,5,12.67,12.8v19.07h-4.42l-.44-4.23h-.2c-3.39,2.69-7.87,5-12.22,5C472.61,173.44,467.81,170.17,467.81,164.6Zm22.59-.06v-8.06c-13.31,1-17.35,3.64-17.35,7.74,0,3.52,3.2,4.93,6.79,4.93S486.81,167.48,490.4,164.54Z" transform="translate(-64.54 -127.1)"/>
    <path d="M504.93,157.18c0-10.11,6.72-16.38,14.08-16.38,3.71,0,6.59,1.47,9.34,4h.13l-.26-5.7v-12h5.31v45.57h-4.35l-.45-4.1h-.19c-2.56,2.63-6.27,4.87-10.17,4.87C510.3,173.44,504.93,167.55,504.93,157.18Zm23.29,7.17V148.86c-2.81-2.62-5.44-3.58-8.13-3.58-5.37,0-9.72,4.73-9.72,11.84,0,7.42,3.45,11.84,9.15,11.84C522.59,169,525.47,167.42,528.22,164.35Z" transform="translate(-64.54 -127.1)"/>
    <path d="M543.84,157.05c0-10.11,7.55-16.25,15.87-16.25,9,0,14.21,5.82,14.21,14.59a21.3,21.3,0,0,1-.26,3.2h-26.3v-4.1h23.16L569.18,156c0-7.35-3.65-11-9.34-11s-10.75,4.35-10.75,12.09c0,8.07,5.24,12.16,12.16,12.16a17,17,0,0,0,9.47-2.94l1.92,3.45a21.33,21.33,0,0,1-12,3.72C551.26,173.44,543.84,167.42,543.84,157.05Z" transform="translate(-64.54 -127.1)"/>
    <path d="M587.17,141.57h4.41l.51,7.36h.13c3.26-5.06,8.13-8.13,13.89-8.13a13.07,13.07,0,0,1,6.14,1.28L611,146.62a15.7,15.7,0,0,0-5.76-1c-4.68,0-9.09,2.37-12.8,8.89v18.18h-5.31Z" transform="translate(-64.54 -127.1)"/>
  </g>
  <g>
    <path d="M64.54,354.78h6.53L77,372.7,79,379.49h.25l2-6.79,6-17.92h6.52v42H88.6v-21c0-4.09.65-11.26.9-14.84h-.19l-2.37,8.19-6,16.51H77.09L71.2,369.12l-2.43-8.19h-.13c.38,3.58.89,10.75.89,14.84v21h-5Z" transform="translate(-64.54 -127.1)"/>
    <path d="M103.45,388.7c0-7,6.53-10.37,22.59-11.65-.19-4.22-2.24-7.8-8.25-7.8-4,0-8,1.92-10.88,3.71l-2.11-3.59c3.2-2,8.45-4.47,13.89-4.47,8.51,0,12.67,5.05,12.67,12.79v19.07h-4.42l-.45-4.22h-.19c-3.39,2.69-7.87,5-12.22,5C108.25,397.53,103.45,394.27,103.45,388.7Zm22.59-.06v-8.07c-13.31,1-17.34,3.65-17.34,7.75,0,3.52,3.2,4.93,6.79,4.93S122.46,391.58,126,388.64Z" transform="translate(-64.54 -127.1)"/>
    <path d="M141.34,402.46c0-2.5,1.79-5,5.12-6.91v-.26a5.63,5.63,0,0,1-3.2-5.12c0-2,1.35-4.22,3.71-5.82v-.26a9.92,9.92,0,0,1-3.84-8.06c0-6.78,5.64-11.13,12.23-11.13a12.63,12.63,0,0,1,4.6.76h12.87V370h-8.07a9.39,9.39,0,0,1,2.63,6.27c0,6.66-5.31,10.69-12,10.69a13.41,13.41,0,0,1-5.25-1.15c-1.54,1-2.43,2.11-2.43,3.58,0,2.43,2.36,3.58,6.46,3.58h7c8,0,11.84,2.05,11.84,7.3,0,5.82-6.72,10.88-17.28,10.88C146.59,411.1,141.34,408,141.34,402.46Zm26.43-1.41c0-2.94-2.37-3.77-7.1-3.77h-6.08a17.41,17.41,0,0,1-4.74-.52c-2.94,1.6-4,3.4-4,5.19,0,3.26,3.51,5.31,10.17,5.31C163.29,407.26,167.77,404.25,167.77,401.05Zm-5.25-25a7.17,7.17,0,1,0-7.16,7.36A7,7,0,0,0,162.52,376Z" transform="translate(-64.54 -127.1)"/>
    <path d="M179.48,381.15c0-10.11,7.56-16.25,15.88-16.25,8.95,0,14.2,5.82,14.2,14.59a21.55,21.55,0,0,1-.25,3.2H183v-4.1h23.17l-1.34,1.47c0-7.36-3.65-11-9.35-11s-10.75,4.36-10.75,12.1c0,8.06,5.25,12.16,12.16,12.16a16.94,16.94,0,0,0,9.47-2.94l1.92,3.45a21.29,21.29,0,0,1-12,3.71C186.91,397.53,179.48,391.52,179.48,381.15Z" transform="translate(-64.54 -127.1)"/>
  </g>
  <g>
    <path d="M787.65,354.78h11.9c8.58,0,14.4,2.88,14.4,10.24,0,4.16-2.37,7.87-7.36,9.15v.26c6.14,1,9.73,4.29,9.73,10.05,0,8.25-6.4,12.28-15.81,12.28H787.65Zm11,17.67c7.16,0,10-2.31,10-7s-3.32-6.21-9.79-6.21H793v13.19Zm1.08,19.84c7.17,0,11.33-2.37,11.33-8.07,0-5.18-4-7.29-11.33-7.29H793v15.36Z" transform="translate(-64.54 -127.1)"/>
    <path d="M829,365.66h4.42l.51,7.36h.13c3.26-5,8.12-8.12,13.88-8.12a13.08,13.08,0,0,1,6.15,1.27l-1.22,4.55a15.46,15.46,0,0,0-5.76-1c-4.67,0-9.09,2.37-12.8,8.9v18.17H829Z" transform="translate(-64.54 -127.1)"/>
    <path d="M863,385V365.66h5.31v18.63c0,5.82,2,8.63,7.17,8.63,3.58,0,6.21-1.66,9.66-5.69V365.66h5.31v31.1h-4.41l-.45-5.43h-.26c-3.13,3.64-6.78,6.2-11.58,6.2C866.43,397.53,863,393.18,863,385Z" transform="translate(-64.54 -127.1)"/>
    <path d="M909.69,384.67V370h-8.83v-4l9-.32.7-10H915v10h15.24V370H915v14.78c0,5.57,1.86,8.45,7.88,8.45a20.47,20.47,0,0,0,7.42-1.41l1.15,3.91a27.18,27.18,0,0,1-9.73,1.85C912.64,397.53,909.69,392.35,909.69,384.67Z" transform="translate(-64.54 -127.1)"/>
    <path d="M939.26,381.15c0-10.11,7.55-16.25,15.87-16.25,9,0,14.21,5.82,14.21,14.59a21.42,21.42,0,0,1-.26,3.2h-26.3v-4.1H966l-1.35,1.47c0-7.36-3.64-11-9.34-11s-10.75,4.36-10.75,12.1c0,8.06,5.25,12.16,12.16,12.16a17,17,0,0,0,9.47-2.94l1.92,3.45a21.29,21.29,0,0,1-12,3.71C946.69,397.53,939.26,391.52,939.26,381.15Z" transform="translate(-64.54 -127.1)"/>
  </g>
  <g>
    <path d="M144.83,768.09H151l14.14,42h-5.76l-7.23-23.43c-1.47-4.67-2.88-9.28-4.16-14.14h-.25c-1.35,4.86-2.69,9.47-4.16,14.14l-7.36,23.43h-5.5ZM138.17,793h19.27v4.35H138.17Z" transform="translate(-64.54 -127.1)"/>
    <path d="M171.64,806l2.44-3.52a22.17,22.17,0,0,0,13.5,4.22c5.25,0,7.81-2.17,7.81-4.8,0-2.36-1.22-4-9.67-5.76-8.12-1.66-12.16-4.41-12.16-9.08,0-5,4.42-8.83,12.93-8.83a23.33,23.33,0,0,1,12.54,4l-2.56,3.4A18.3,18.3,0,0,0,186,782.3c-5.24,0-7.16,2.11-7.16,4.48,0,2.69,2.68,3.84,9.08,5.18,10.31,2.25,12.8,4.8,12.8,9.6,0,5.06-4.93,9.28-13.82,9.28A27.39,27.39,0,0,1,171.64,806Z" transform="translate(-64.54 -127.1)"/>
    <path d="M210,806l2.44-3.52a22.17,22.17,0,0,0,13.5,4.22c5.25,0,7.81-2.17,7.81-4.8,0-2.36-1.22-4-9.67-5.76C216,794.46,212,791.71,212,787c0-5,4.42-8.83,12.93-8.83a23.33,23.33,0,0,1,12.54,4l-2.56,3.4a18.3,18.3,0,0,0-10.43-3.27c-5.25,0-7.16,2.11-7.16,4.48,0,2.69,2.68,3.84,9.08,5.18,10.31,2.25,12.8,4.8,12.8,9.6,0,5.06-4.93,9.28-13.82,9.28A27.39,27.39,0,0,1,210,806Z" transform="translate(-64.54 -127.1)"/>
    <path d="M249,802c0-7,6.53-10.37,22.59-11.64-.19-4.23-2.24-7.81-8.26-7.81-4,0-8,1.92-10.88,3.71l-2.11-3.58c3.2-2.05,8.45-4.48,13.89-4.48,8.51,0,12.67,5,12.67,12.79v19.08h-4.41l-.45-4.23h-.19c-3.4,2.69-7.88,5-12.23,5C253.82,810.84,249,807.58,249,802Zm22.59-.06v-8.07c-13.31,1-17.34,3.65-17.34,7.75,0,3.52,3.2,4.93,6.78,4.93S268,804.89,271.61,802Z" transform="translate(-64.54 -127.1)"/>
    <path d="M286.84,806l2.43-3.52a22.22,22.22,0,0,0,13.51,4.22c5.25,0,7.8-2.17,7.8-4.8,0-2.36-1.21-4-9.66-5.76-8.13-1.66-12.16-4.41-12.16-9.08,0-5,4.42-8.83,12.93-8.83a23.35,23.35,0,0,1,12.54,4l-2.56,3.4a18.3,18.3,0,0,0-10.43-3.27c-5.25,0-7.17,2.11-7.17,4.48,0,2.69,2.69,3.84,9.09,5.18,10.3,2.25,12.8,4.8,12.8,9.6,0,5.06-4.93,9.28-13.82,9.28A27.39,27.39,0,0,1,286.84,806Z" transform="translate(-64.54 -127.1)"/>
    <path d="M325.24,806l2.43-3.52a22.22,22.22,0,0,0,13.51,4.22c5.24,0,7.8-2.17,7.8-4.8,0-2.36-1.21-4-9.66-5.76-8.13-1.66-12.16-4.41-12.16-9.08,0-5,4.42-8.83,12.93-8.83a23.35,23.35,0,0,1,12.54,4l-2.56,3.4a18.3,18.3,0,0,0-10.43-3.27c-5.25,0-7.17,2.11-7.17,4.48,0,2.69,2.69,3.84,9.09,5.18,10.3,2.25,12.8,4.8,12.8,9.6,0,5.06-4.93,9.28-13.82,9.28A27.39,27.39,0,0,1,325.24,806Z" transform="translate(-64.54 -127.1)"/>
    <path d="M379.26,783.26h-14.4V779h19.71v31.11h-5.31Zm-2.12-14.91a4.23,4.23,0,0,1,8.45,0,4.23,4.23,0,0,1-8.45,0Z" transform="translate(-64.54 -127.1)"/>
    <path d="M403.45,779h4.35l.45,5.25h.25c3.27-3.39,6.85-6,11.72-6,7.36,0,10.75,4.35,10.75,12.54v19.33h-5.31V791.45c0-5.88-2.05-8.64-7.11-8.64-3.71,0-6.21,1.86-9.79,5.57v21.7h-5.31Z" transform="translate(-64.54 -127.1)"/>
  </g>
  <g>
    <path d="M635.58,773.41H621.7v-4.55h33.15v4.55H641v37.43h-5.38Z" transform="translate(-64.54 -127.1)"/>
    <path d="M662.59,802.78c0-7,6.53-10.37,22.59-11.65-.19-4.22-2.24-7.81-8.25-7.81-4,0-8,1.92-10.88,3.72l-2.11-3.59c3.2-2.05,8.44-4.48,13.88-4.48,8.52,0,12.68,5.06,12.68,12.8v19.07h-4.42l-.45-4.22h-.19c-3.39,2.69-7.87,5-12.22,5C667.39,811.61,662.59,808.35,662.59,802.78Zm22.59-.07v-8.06c-13.31,1-17.34,3.65-17.34,7.75,0,3.52,3.2,4.92,6.78,4.92S681.6,805.66,685.18,802.71Z" transform="translate(-64.54 -127.1)"/>
    <path d="M701.83,779.74h4.35l.44,5.25h.26c3.26-3.39,6.85-6,11.71-6,7.36,0,10.75,4.35,10.75,12.55v19.32H724V792.22c0-5.89-2-8.64-7.1-8.64-3.71,0-6.21,1.86-9.79,5.57v21.69h-5.31Z" transform="translate(-64.54 -127.1)"/>
    <path d="M741,765.28h5.31v30.78h.26l16.7-16.32h6.08l-23,22.66v8.44H741Zm12,29.05,3.2-3.45,14.85,20h-5.89Z" transform="translate(-64.54 -127.1)"/>
  </g>
</svg>
