<svg id="Calque_1" data-name="Calque 1" xmlns="http://www.w3.org/2000/svg" viewBox="0 0 896.4 919.56"><defs><style>.cls-1{fill:none;stroke:#9e813a;stroke-miterlimit:10;stroke-width:10px;}</style></defs><path class="cls-1" d="M592.09,1000s-4.39-2.25-5-5-1.93-12.64-1.71-15.85-24.63-21.2-24.2-24.2-1.5-45.62-13.71-56.11c0,0-15.63-47.76-28.7-62.1s-10.28-42.41-3.64-53.33,48.19-103.87,50.12-104.51,9-4.71,11.13-1.71,5.55-12,3.84-13.29-4.91,7.08-4.91,7.08,6.43-25.27-15.63-35.34c-1.72-10.71,1.71,22.7,1.71,22.7s-15-39-60.61-37.9c25.7,38.12,4.72,59.53,4.72,59.53s11.77-70-52-64C486,658.74,477,677.59,477,677.59s-9.63-34.91-25.27-38.12-27.2-4.93-42-1.29c22.48,19.92,18.2,62.32,18.2,62.32s-9.42-40.26-34.91-45.61c-4.28,10.28-49,2.35-58-4.07,6.64,15.2-14.45,62-24.46,68.58,2.61-14.19,28.95-37.1,11.18-76.72-37.48-19.06-80.09-77.53-90.59-97.44,0,0,7.93,42.62-32.12,86.52,0,0,34.26-83.52-7.71-155.48-16.35-48.33-14.78-64-14.78-64s-37.9-.22-43.69-19.71c10.28,0,11.35,15.64,43,4.07-.43-83.09,38.55-129.35,43.26-129.35S75.23,340.08,133.9,451.44c0,0-42.51-25.38-12.47-123.84s79.93-83.68,111.2-70c16.06-18.21,15.63-20.78,15.63-20.78s.22-67,7.29-80.95S292.17,133,335,166.82c49.68-14.56,139.63-4.71,139.63-4.71S525.81,132.77,525,98.94c15.21,15.2-35.26,68.24-35.26,68.24S538,172,577.78,147.34c-7.42,19.41-46.26,36.54-46.26,36.54S631.6,198.3,663.73,285.54c27.7,32.84,27,68.1,27,68.1s-10-44.26-26-52.25c3.57,24.69-9.85,63.81-9.85,63.81s14.27,66,49.54,88.09c-12.28,1.15-42-30.26-42-30.26s19,50.39,14.85,78c-9.28-29.55-.43-24.7-20.7-56.11.91,7-10.85,15.42,17.42,80.52,0,0-15.28-23-25.13-42-5.39,3.43-9.57,44.4,30,54.82,11.28,6.71-21.27-1.85-21.27-1.85a32.54,32.54,0,0,0,16,19.13s-7,.71-23.84-10.71c0,0,24.55,53.11,59,12.42-4.71-15,3.43-13.42,5.43-13.13s17.56-3.29,33.26-12.14,27.27-6.71,27.27-6.71,38.12-29.55,96.09-24.41c57.39,24.55,124.35,94.37,124.35,94.37Z" transform="translate(-105.69 -86.55)"/></svg>