<svg xmlns="http://www.w3.org/2000/svg" viewBox="0 0 637.5 736.56"><defs><style>.cls-1{fill-rule:evenodd;}</style></defs><g id="Calque_1" data-name="Calque 1"><g id="_786775664" data-name=" 786775664"><path d="M223.75,575.94,400,768.28,576.25,575.94Zm145,94.68H347.81V623.75c-7.81-2.19-16.25,2.66-23.9-.47-5.94-4.53,1.56-10.62,7-9.22,5.15-.15,11.87.32,14.53-5,6.87-7,15-6.87,23.28-6.25Zm66.09,3.44c-11.4-.94-24.37-1.72-32.18-11.09-10-16.56,16.4-10.47,19.06-5,9.37,8.28,31.72,3,32.34-7.35.94-6.56-3.28-9.84-10.78-12.18s-19.69,1.56-27,2.81-15,.78-14.06-6.87c1.25-6.57,4.22-12.66,4.22-19.54.15-4.68,2.65-10.93,7.65-11.25,18.91,1.88,37.82.94,57.19.94,2.34,4.69,1.25,12.19-5.16,12.35-12,.46-32.81-2.5-40.46.93-12.82,16.41,8.9,5.94,17.81,8.13,10.94,1.72,23.44,4.53,29.84,14.37,3.28,4.85,4.22,11.41,1.1,16.72C465.31,667.66,447.81,675,434.84,674.06Z" transform="translate(-81.25 -31.72)"/><path d="M602.19,534.22,713.44,232.81,422,226.41ZM575.31,271.88c9.53-7.5,23.44-6.41,33-.79,21.72,13,33.6,40.94,34.53,67.19-2,21.25-1.09,30.94-23.75,33.44s-37.34-30-46.4-50.94C567.34,305.31,563.59,283.28,575.31,271.88ZM522,309.38c-.47-10.79,3.44-19.07,12.5-17.66l44.53,99.22-15.62,6.87-31.25-67.65c-9.53,4.68-20.31,13.9-22.81-2.19C507.34,321.88,522.66,320,522,309.38Z" transform="translate(-81.25 -31.72)"/><path d="M622,552.34l96.72,8.91V290.62Zm56.09-39.84L671.25,523V456.88c-7.19,11.71-14.22,14.21-9.53-1.41,9.53-11.09,7.5-27.19,16.4-38.59Zm38.29-113h0c-.16,29.06,1.71,61.25-15.16,86.41a12.71,12.71,0,0,1-5.78,3.9c-9.06-6.4-4.69-17.65,1.87-24.22,1.57,11.41,8.6-4.53,10.32-8.75,2-5,5.62-27.65-1.57-15.93,1.1,6.25-10.62,20.47-14.53,12.65-7.81-22.5,0-47.65,10.94-68C711.41,375.94,718,392.5,716.41,399.53Z" transform="translate(-81.25 -31.72)"/><path d="M106.19,584.06l100.37,64.22a118.62,118.62,0,0,1-11.09-13.75c-8.13-10.78-16.41-21.25-29.53-25.94-13.67-10.15-6.56-8.28,4.53-4.06-1.56-2.81-1.09-4.06.15-4.06,3.44-.31,13.13,6.56,15.32,9.84l38.59,49.38,101.72,65.15L190.31,576.41Zm128.65,53.6c-.46-3,.32-4.07,1.88-4.07h0c3.75,0,11.72,7.19,14.69,10.94l40.78,48.59c-12-3.28-20.78-11.09-27.5-21.4-10.16-11.41-17.66-25.94-33.13-30.63C217.5,633.28,223.44,631.09,234.84,637.66Z" transform="translate(-81.25 -31.72)"/><path d="M583,550.94,400,238.12,217,550.94ZM343.06,477V459.63h9v-9h17.91v-8.41H352v-8.95h-9v-9h-8.4V380.81H352v9h17.91v-9h8.4v-9h44.1v9h17.36v-9h26.32v17.92h-9v8.4h-8.41v9h-8.4V425h8.4v17.22h8.41v17.92h17.91v26.31h-8.95v8.41h8.95v17.36H422.43v-8.4H395.56v8.4h-60.9V494.9h8.4v-9h9V477Z" transform="translate(-81.25 -31.72)"/><path d="M412.5,31.72V201.25L687,207.19ZM551.41,174.53c-15.16.16-30.79-9.53-22.82-13,7.35-3.12,23,1.41,15.63-8.59-5.63-7-17.19-12.19-25.47-9.22-2.5,10.63-14.69,6.25-18.75-1.09-3.59-9.07-14.22-12.82-23.44-12.35-9.53,4.22,2.5,13.75,8.28,15.47,12.35,3.44.32,11.72-6.4,8-6.57-3.75-23.44-15-21.1-28.59,9.07-11.55,24.69-7.22,35.47-1.41,9.53,5.47,12.81,11.25,23.6,6.56,16.71,1.25,34.84,9.07,43.12,24.53C566.88,161.88,561.88,174.53,551.41,174.53Z" transform="translate(-81.25 -31.72)"/><path d="M617.34,352.66c10.63-1.88,6.88-20,5.78-25.78-7.34-17-11.09-36.41-30.15-43.76h0c-11.09-.15-6.88,15.63-5.16,22.66C593.28,323.75,599.22,347.34,617.34,352.66Z" transform="translate(-81.25 -31.72)"/><path d="M81.25,290.62V561.25L178,552.34ZM97.52,484.69c-11.41-10.94-7-28.13-7-41.25s2.58-25.47-2-36.25c-7.22-2.66-9-26.57-5-19.85,6.89,7.5,7.28-4.22,10-3.75.92.16,2.09,1.57,3.88,5.63Zm33.09,40c-16.19-9.07-17.81-30.32-21-46.88a152.81,152.81,0,0,1,3.6-57.34c8.12-5.94,14.31,8.44,17.8,15.47h0c1.25,5.62,8,27.81,3.18,23.12-3.08-2-5.65-7.65-5.32-9.53-2.43-4.69-4.63-9.53-6.58-14.37-4.61,6.25-6.19,13-4.91,20.93.31-2.5,1.84-3.59,5.3-1.09,12.25,19.69,19,45.47,11.39,68Z" transform="translate(-81.25 -31.72)"/><path d="M622.66,611.41h0c-.32-.32-10.94,9.06-15.47,12.65L582.5,644.53C599.06,634.38,612.66,625.78,622.66,611.41Z" transform="translate(-81.25 -31.72)"/><path d="M700.16,405.94c-2.5,9.22-5.16,20.94-1.1,30.15,8-3.12,8.44-15,10.32-22.65C710.78,403.91,703.91,393.75,700.16,405.94Z" transform="translate(-81.25 -31.72)"/><path d="M543.44,648.75c10-4.84,17.65-13.28,26.56-19.37,3.75-2.19,5.78-3,6.72-3,3.28,0-8.44,11.09-12,16.09C550,657.81,539.69,678.44,520,688l29.53-38.28a137.69,137.69,0,0,1-12.81,6.4l-63,68.75,116.41-74.37c8.43-10.47,3-8.75-8.91-1.41l-17.81,9.38c17.81-21.41,48.12-44.22,62.5-55.63s24.84-15.31,12.81-2.34l-19.69,25c15.63-11.88,1.41,6.09-7,8.59a48.15,48.15,0,0,1-3.44,4.53l85.16-54.53-84.06-7.65Z" transform="translate(-81.25 -31.72)"/><path d="M120,467.5c-6.34,7.34-3.53,20-.59,28.75,1.73,8.59,10.81,15.94,9.47,2.5C130,481.41,125.23,478.91,120,467.5Z" transform="translate(-81.25 -31.72)"/><path d="M378,226.41l-291.42,6.4L197.81,534.22ZM183.12,344.06c6.88-24.68,16.88-53,42.5-63.44,13.29-6.09,29.69,5,33.13,15.63,3.28,6.25-.78,17.81-7.5,18.91-7.66,1.09-5.94-14.54-14.69-18.13-10.78-3.59-21.25,8.75-23.44,18.13,16.26-6.25,31.72,11.09,31.72,26.56-.62,18.28-12.34,38.75-30.78,43.9h-8.75C185.47,384.53,176.72,360.94,183.12,344.06Z" transform="translate(-81.25 -31.72)"/><path d="M223.44,358.12c4.22-7.81,6.09-18.28-.78-24.53-6.41-5.31-13.91-4.37-19.38.94h0c-3.75,8-6.4,16.09-4.22,24.85C201.72,373.12,220.16,369.37,223.44,358.12Z" transform="translate(-81.25 -31.72)"/><path d="M387.5,31.72,113,207.19l274.48-5.94Zm-48.28,102c-6.72,10.94-15.31,20.47-28.28,23.13-10.16,5.31-23.28,6.87-33.75,3-5.78-3.59-21.1-14.53-23.28-5.31-3.29,23.13,1.09,20.47-17.35,27.81V144.22c15.47-6.1,33-7,47.35,2,12.5,6.56,30.31,2.34,37.81-8.91,2.19-10.15-12.66-7.18-19.06-5.31-4.22-12.81,12.34-11.72,20.62-13.75h0C331.88,119.06,342.5,123,339.22,133.75Z" transform="translate(-81.25 -31.72)"/><path class="cls-1" d="M378.33,380.81h78.82v9h-8.41v8.4H422.43v9h8.95V425h17.36v61.45h8.41V468.58h9v35.28H457.7V486.49h17.36V460.18H457.15V442.26H440.34V407.13h8.4v-9h8.41v-8.4h9V371.85H439.79v17.92H422.43V371.85h-44.1v9h-8.4v9H343.06v8.4h9V380.81H334.66v43.54h8.4v9h9v8.95h17.91v8.41H352v9h-8.41V477H352v8.95h-9v9h-8.4v17.36h60.9v-8.4h26.87v8.4h52.63V494.9H448.74v9h-8.95v-9h-8.41v9h-8.95v-9h8.95V477.54h9v-9h-9v9H396.8V459.63h25.63v-8.41h8.95v-9h-8.95v9H405.06v34.72h17.37v9H361v9h17.36V485.94h-8.4V450.67h8.4v-8.41h17.78v-8.95H352v-9h35.13v-8.27h-8.26v-8.95h-9v8.95H343.06v-8.95h17.36v-9h17.91V380.81Zm35.69,9H396.38v8.4h-8.54v9h17.22v-9h9ZM352,477V459.63h9V477Zm-9,17.91h9v9h-9Z" transform="translate(-81.25 -31.72)"/></g></g></svg>