<svg id="Calque_1" data-name="Calque 1" xmlns="http://www.w3.org/2000/svg" viewBox="0 0 828.35 848.77"><defs><style>.cls-1{fill:none;stroke:#000;stroke-linecap:round;stroke-linejoin:round;stroke-width:15px;}</style></defs><circle class="cls-1" cx="419.98" cy="484.18" r="111.56"/><polyline class="cls-1" points="408.32 7.5 324.4 39.66 238.61 244.46 320.34 434.15"/><polyline class="cls-1" points="517.1 429.49 589.63 236.09 494.11 35.65 408.74 7.55"/><polyline class="cls-1" points="398.39 375.86 499.97 196.01 714.93 140.4 791.31 187.75"/><polyline class="cls-1" points="521.16 529.7 719.02 470.42 820.81 273.08 791.53 188.12"/><polyline class="cls-1" points="434.37 373.55 324.27 198.79 106.89 153.56 32.87 204.53"/><polyline class="cls-1" points="319.13 533.11 118.64 483.4 7.5 291.18 32.67 204.91"/><polyline class="cls-1" points="398.33 592.36 500.08 772.11 715.1 827.5 791.43 780.08"/><polyline class="cls-1" points="520.95 438.4 718.87 497.48 820.85 694.72 791.65 779.71"/><polyline class="cls-1" points="447.12 591.18 354.11 775.61 142 841.27 63.48 797.56"/><polyline class="cls-1" points="317.25 443.29 122.39 511.81 30 713.71 63.25 797.2"/><circle class="cls-1" cx="206.47" cy="303.03" r="16.29"/><path class="cls-1" d="M421.47,461.52s-135.43-61-122-122.89" transform="translate(-103.22 -22.9)"/><circle class="cls-1" cx="631.94" cy="298.63" r="16.29"/><path class="cls-1" d="M623.38,457.13s135.43-61.05,122-122.9" transform="translate(-103.22 -22.9)"/><circle class="cls-1" cx="207.25" cy="666.96" r="16.29"/><path class="cls-1" d="M422.25,554.27s-135.44,61.05-122,122.9" transform="translate(-103.22 -22.9)"/><circle class="cls-1" cx="634.71" cy="665.36" r="16.29"/><path class="cls-1" d="M626.15,552.67s135.44,61,122,122.89" transform="translate(-103.22 -22.9)"/></svg>