<svg id="Calque_1" data-name="Calque 1" xmlns="http://www.w3.org/2000/svg" viewBox="0 0 753.55 702.89"><defs><style>.cls-1,.cls-2{fill:none;stroke:#7c7a8e;stroke-miterlimit:10;stroke-width:20px;}.cls-2{stroke-linecap:round;}</style></defs><ellipse class="cls-1" cx="468.9" cy="446.54" rx="225.87" ry="313.96" transform="translate(-211.5 69.9) rotate(-18.65)"/><ellipse class="cls-1" cx="523.25" cy="428.19" rx="59.61" ry="82.86" transform="translate(-202.78 86.31) rotate(-18.65)"/><ellipse class="cls-1" cx="503.51" cy="434.85" rx="142.34" ry="197.85" transform="translate(-205.94 80.35) rotate(-18.65)"/><line class="cls-1" x1="275.17" y1="45.54" x2="140.19" y2="91.1"/><line class="cls-1" x1="476" y1="640.49" x2="341.01" y2="686.05"/><path class="cls-1" d="M239.35,192.75c-118.19,39.9-169,205.43-113.59,369.72S322,827.6,440.18,787.7" transform="translate(-93.31 -103.52)"/><line class="cls-1" x1="668.16" y1="86.44" x2="429.93" y2="324.67"/><line class="cls-2" x1="649.93" y1="47.78" x2="662.82" y2="91.78"/><line class="cls-2" x1="685.04" y1="10" x2="649.93" y2="47.78"/><line class="cls-2" x1="701.93" y1="50" x2="685.04" y2="10"/><line class="cls-2" x1="705.77" y1="101.93" x2="661.77" y2="89.04"/><line class="cls-2" x1="743.55" y1="66.82" x2="705.77" y2="101.93"/><line class="cls-2" x1="703.55" y1="49.93" x2="743.55" y2="66.82"/></svg>