<svg id="Calque_1" data-name="Calque 1" xmlns="http://www.w3.org/2000/svg" viewBox="0 0 609.67 573.05"><defs><style>.cls-1,.cls-2{fill:none;}.cls-1{stroke:#000;stroke-miterlimit:10;}.cls-2{stroke:#1d1d1b;stroke-width:14px;}</style></defs><path class="cls-1" d="M488.48,424.29a9.24,9.24,0,0,1,2.94-3.39,10.49,10.49,0,0,1,4.5-1.63,12.64,12.64,0,0,1,5.28.64,15.75,15.75,0,0,1,5.17,3.13,19.3,19.3,0,0,1,4.12,5.53,24,24,0,0,1,2.18,7.51,28.59,28.59,0,0,1-.5,8.8,32.88,32.88,0,0,1-3.63,9.15,37.59,37.59,0,0,1-6.92,8.42,42.14,42.14,0,0,1-10,6.57,47,47,0,0,1-12.54,3.69,52.2,52.2,0,0,1-14.18,0,56.93,56.93,0,0,1-14.66-4.37,61.72,61.72,0,0,1-13.8-8.89,66.46,66.46,0,0,1-11.56-13.21,71.21,71.21,0,0,1-8-16.9,75.82,75.82,0,0,1-3.26-19.55,81.23,81.23,0,0,1,2.28-20.84,85.85,85.85,0,0,1,8.25-20.52,90.63,90.63,0,0,1,14.15-18.46,95,95,0,0,1,19.5-14.68,99.65,99.65,0,0,1,23.78-9.38A105,105,0,0,1,508.16,323a109.57,109.57,0,0,1,27.5,4.51A114.44,114.44,0,0,1,562,339.67a118.63,118.63,0,0,1,23.11,19.41A124,124,0,0,1,603,384.86a128.4,128.4,0,0,1,10.78,30.67,133.62,133.62,0,0,1,2.4,33.57,138.27,138.27,0,0,1-6.74,34.17,142.91,142.91,0,0,1-16,32.23,147.48,147.48,0,0,1-24.68,27.76,152.15,152.15,0,0,1-32.07,21,157,157,0,0,1-37.54,12.18,161.89,161.89,0,0,1-40.59,2,166.57,166.57,0,0,1-40.83-9,171.37,171.37,0,0,1-38.09-19.88,176,176,0,0,1-32.42-29.93,181,181,0,0,1-24.09-38.36,185.65,185.65,0,0,1-13.58-44.43,147.46,147.46,0,0,0-11.7-35.25,142.45,142.45,0,0,0-19.92-30,138,138,0,0,0-26.21-22.93A133.3,133.3,0,0,0,221.41,334a128.27,128.27,0,0,0-31.94-6,123.61,123.61,0,0,0-31.24,2.54,118.86,118.86,0,0,0-28.37,10.31,114.24,114.24,0,0,0-23.69,16.78,109.57,109.57,0,0,0-17.66,21.56,104.83,104.83,0,0,0-10.83,24.42,100.07,100.07,0,0,0-3.77,25.28,95.6,95.6,0,0,0,3,24.23,90.75,90.75,0,0,0,8.91,21.48A85.16,85.16,0,0,0,99.44,492a80.63,80.63,0,0,0,16.9,12.4,76.21,76.21,0,0,0,18.57,7,71.39,71.39,0,0,0,18.61,1.54,66.09,66.09,0,0,0,17.22-3.41,61.68,61.68,0,0,0,14.6-7.5,56.84,56.84,0,0,0,11.12-10.51,52,52,0,0,0,7.13-12.25,47.33,47.33,0,0,0,3.08-12.71,42.47,42.47,0,0,0-.69-12,37.64,37.64,0,0,0-3.83-10.2,32.61,32.61,0,0,0-6.11-7.72,28.36,28.36,0,0,0-7.37-4.83,23.75,23.75,0,0,0-7.6-1.87,19.61,19.61,0,0,0-6.85.8,15.74,15.74,0,0,0-5.29,2.91,12.83,12.83,0,0,0-3.19,4.26,10.59,10.59,0,0,0-.84,4.71,9.31,9.31,0,0,0,1.46,4.24,9.31,9.31,0,0,1,1.46,4.24,10.45,10.45,0,0,1-.83,4.71,12.72,12.72,0,0,1-3.2,4.26,15.74,15.74,0,0,1-5.29,2.91,19.58,19.58,0,0,1-6.85.8,23.81,23.81,0,0,1-7.6-1.87,28.36,28.36,0,0,1-7.37-4.83,32.61,32.61,0,0,1-6.11-7.72,37.64,37.64,0,0,1-3.83-10.2,42.47,42.47,0,0,1-.69-12,47.17,47.17,0,0,1,3.08-12.7,52.06,52.06,0,0,1,7.14-12.26,57.08,57.08,0,0,1,11.11-10.51,61.68,61.68,0,0,1,14.6-7.5,66.08,66.08,0,0,1,17.22-3.4,70.65,70.65,0,0,1,18.62,1.54,76,76,0,0,1,18.56,6.95,81,81,0,0,1,16.91,12.4,85.73,85.73,0,0,1,13.64,17.4,90.5,90.5,0,0,1,8.91,21.48,95.21,95.21,0,0,1,3,24.23A100.07,100.07,0,0,1,255,490.06a104.41,104.41,0,0,1-10.83,24.42A109.57,109.57,0,0,1,226.55,536a113.71,113.71,0,0,1-23.69,16.78,118.7,118.7,0,0,1-28.37,10.31,123.57,123.57,0,0,1-31.23,2.55,129.18,129.18,0,0,1-31.95-6A134,134,0,0,1,81,545a138.27,138.27,0,0,1-26.21-22.92,142.47,142.47,0,0,1-19.91-30A146.9,146.9,0,0,1,23.2,456.82a152.29,152.29,0,0,1-2.12-38.25A157.26,157.26,0,0,1,29.31,380,161.77,161.77,0,0,1,47.9,343.83,165.85,165.85,0,0,1,76.08,313a171.31,171.31,0,0,1,36.26-23,176.2,176.2,0,0,1,42.13-13.11,180.53,180.53,0,0,1,45.26-1.68A185.2,185.2,0,0,1,245,285.57a147.4,147.4,0,0,0,36.39,7.49,142.74,142.74,0,0,0,35.91-2.26,137.71,137.71,0,0,0,33-11.24,133,133,0,0,0,27.87-18.87A128.47,128.47,0,0,0,399.3,236a123.78,123.78,0,0,0,13.42-28.33A119.09,119.09,0,0,0,418,178a114.11,114.11,0,0,0-2.68-28.9A109.43,109.43,0,0,0,405.44,123a104.55,104.55,0,0,0-15.73-21.59,99.71,99.71,0,0,0-20-15.9A94.71,94.71,0,0,0,347.23,76a90.17,90.17,0,0,0-23.06-3,85.72,85.72,0,0,0-21.89,3.12,80.32,80.32,0,0,0-19.19,8.44,75.86,75.86,0,0,0-15.3,12.6,71.28,71.28,0,0,0-10.65,15.35,66.4,66.4,0,0,0-5.66,16.61,61.78,61.78,0,0,0-.8,16.4,56.88,56.88,0,0,0,3.55,14.88,51.86,51.86,0,0,0,7,12.31,47.26,47.26,0,0,0,9.46,9,42.34,42.34,0,0,0,10.7,5.39,37.82,37.82,0,0,0,10.76,1.78,32.7,32.7,0,0,0,9.73-1.43,28.28,28.28,0,0,0,7.87-4,24,24,0,0,0,5.42-5.64,19.46,19.46,0,0,0,2.73-6.33,15.79,15.79,0,0,0,.13-6.05,12.82,12.82,0,0,0-2.09-4.89,10.55,10.55,0,0,0-3.66-3.08,9.3,9.3,0,0,0-4.41-.85,9.3,9.3,0,0,1-4.4-.86,10.46,10.46,0,0,1-3.66-3.08,12.82,12.82,0,0,1-2.09-4.89,16,16,0,0,1,.12-6,19.9,19.9,0,0,1,2.73-6.33,23.84,23.84,0,0,1,5.43-5.64,28.23,28.23,0,0,1,7.86-4,32.82,32.82,0,0,1,9.74-1.43,37.75,37.75,0,0,1,10.75,1.78,42.5,42.5,0,0,1,10.7,5.39,47,47,0,0,1,9.47,9,52.21,52.21,0,0,1,7,12.31,56.47,56.47,0,0,1,3.54,14.88,61.77,61.77,0,0,1-.79,16.4,66.42,66.42,0,0,1-5.67,16.61A71.24,71.24,0,0,1,348,216.07a75.86,75.86,0,0,1-15.3,12.6,80.39,80.39,0,0,1-19.2,8.44,85.22,85.22,0,0,1-21.89,3.12,90.28,90.28,0,0,1-23.06-3,94.88,94.88,0,0,1-22.47-9.54,99.65,99.65,0,0,1-20-15.9,104.33,104.33,0,0,1-15.74-21.59,109.4,109.4,0,0,1-9.84-26.08,114.58,114.58,0,0,1-2.69-28.9,119.18,119.18,0,0,1,5.26-29.72,123.56,123.56,0,0,1,13.42-28.33,128.42,128.42,0,0,1,21.16-24.66,133,133,0,0,1,27.88-18.87,138.15,138.15,0,0,1,33-11.24,142.68,142.68,0,0,1,35.91-2.26,147.23,147.23,0,0,1,36.38,7.49A151.73,151.73,0,0,1,405,44.89a157,157,0,0,1,29.32,26.43,161.8,161.8,0,0,1,22,34.16A166.39,166.39,0,0,1,469,145.32a171,171,0,0,1,1.83,42.93,176,176,0,0,1-9.71,43,180.55,180.55,0,0,1-21.17,40,185.32,185.32,0,0,1-31.69,34,147.79,147.79,0,0,0-24.68,27.76,142.77,142.77,0,0,0-16,32.24,138.2,138.2,0,0,0-6.74,34.16,133.7,133.7,0,0,0,2.4,33.58A128.33,128.33,0,0,0,374,463.71a123.57,123.57,0,0,0,17.82,25.78,118.63,118.63,0,0,0,23.11,19.41A114.44,114.44,0,0,0,441.3,521a109.57,109.57,0,0,0,27.5,4.51,104.56,104.56,0,0,0,26.56-2.83,99.65,99.65,0,0,0,23.78-9.38,95.32,95.32,0,0,0,19.5-14.68,90.63,90.63,0,0,0,14.15-18.46A85.85,85.85,0,0,0,561,459.67a81.23,81.23,0,0,0,2.28-20.84,75.89,75.89,0,0,0-3.26-19.55,71.58,71.58,0,0,0-8-16.9,66.45,66.45,0,0,0-11.56-13.2,61.76,61.76,0,0,0-13.8-8.9,56.91,56.91,0,0,0-14.66-4.36,51.8,51.8,0,0,0-14.18-.06,47.34,47.34,0,0,0-12.54,3.69,42.14,42.14,0,0,0-10,6.57,37.59,37.59,0,0,0-6.92,8.42,32.88,32.88,0,0,0-3.63,9.15,28.28,28.28,0,0,0-.5,8.8,24.08,24.08,0,0,0,2.18,7.52,19.74,19.74,0,0,0,4.11,5.53,16.25,16.25,0,0,0,5.18,3.13,12.8,12.8,0,0,0,5.28.63,10.49,10.49,0,0,0,4.5-1.63,9.3,9.3,0,0,0,2.94-3.38Z" transform="translate(-13.69 -12.81)"/><path class="cls-2" d="M488.48,424.29a9.24,9.24,0,0,1,2.94-3.39,10.49,10.49,0,0,1,4.5-1.63,12.64,12.64,0,0,1,5.28.64,15.75,15.75,0,0,1,5.17,3.13,19.3,19.3,0,0,1,4.12,5.53,24,24,0,0,1,2.18,7.51,28.59,28.59,0,0,1-.5,8.8,32.88,32.88,0,0,1-3.63,9.15,37.59,37.59,0,0,1-6.92,8.42,42.14,42.14,0,0,1-10,6.57,47,47,0,0,1-12.54,3.69,52.2,52.2,0,0,1-14.18,0,56.93,56.93,0,0,1-14.66-4.37,61.72,61.72,0,0,1-13.8-8.89,66.46,66.46,0,0,1-11.56-13.21,71.21,71.21,0,0,1-8-16.9,75.82,75.82,0,0,1-3.26-19.55,81.23,81.23,0,0,1,2.28-20.84,85.85,85.85,0,0,1,8.25-20.52,90.63,90.63,0,0,1,14.15-18.46,95,95,0,0,1,19.5-14.68,99.65,99.65,0,0,1,23.78-9.38A105,105,0,0,1,508.16,323a109.57,109.57,0,0,1,27.5,4.51A114.44,114.44,0,0,1,562,339.67a118.63,118.63,0,0,1,23.11,19.41A124,124,0,0,1,603,384.86a128.4,128.4,0,0,1,10.78,30.67,133.62,133.62,0,0,1,2.4,33.57,138.27,138.27,0,0,1-6.74,34.17,142.91,142.91,0,0,1-16,32.23,147.48,147.48,0,0,1-24.68,27.76,152.15,152.15,0,0,1-32.07,21,157,157,0,0,1-37.54,12.18,161.89,161.89,0,0,1-40.59,2,166.57,166.57,0,0,1-40.83-9,171.37,171.37,0,0,1-38.09-19.88,176,176,0,0,1-32.42-29.93,181,181,0,0,1-24.09-38.36,185.65,185.65,0,0,1-13.58-44.43,147.46,147.46,0,0,0-11.7-35.25,142.45,142.45,0,0,0-19.92-30,138,138,0,0,0-26.21-22.93A133.3,133.3,0,0,0,221.41,334a128.27,128.27,0,0,0-31.94-6,123.61,123.61,0,0,0-31.24,2.54,118.86,118.86,0,0,0-28.37,10.31,114.24,114.24,0,0,0-23.69,16.78,109.57,109.57,0,0,0-17.66,21.56,104.83,104.83,0,0,0-10.83,24.42,100.07,100.07,0,0,0-3.77,25.28,95.6,95.6,0,0,0,3,24.23,90.75,90.75,0,0,0,8.91,21.48A85.16,85.16,0,0,0,99.44,492a80.63,80.63,0,0,0,16.9,12.4,76.21,76.21,0,0,0,18.57,7,71.39,71.39,0,0,0,18.61,1.54,66.09,66.09,0,0,0,17.22-3.41,61.68,61.68,0,0,0,14.6-7.5,56.84,56.84,0,0,0,11.12-10.51,52,52,0,0,0,7.13-12.25,47.33,47.33,0,0,0,3.08-12.71,42.47,42.47,0,0,0-.69-12,37.64,37.64,0,0,0-3.83-10.2,32.61,32.61,0,0,0-6.11-7.72,28.36,28.36,0,0,0-7.37-4.83,23.75,23.75,0,0,0-7.6-1.87,19.61,19.61,0,0,0-6.85.8,15.74,15.74,0,0,0-5.29,2.91,12.83,12.83,0,0,0-3.19,4.26,10.59,10.59,0,0,0-.84,4.71,9.31,9.31,0,0,0,1.46,4.24,9.31,9.31,0,0,1,1.46,4.24,10.45,10.45,0,0,1-.83,4.71,12.72,12.72,0,0,1-3.2,4.26,15.74,15.74,0,0,1-5.29,2.91,19.58,19.58,0,0,1-6.85.8,23.81,23.81,0,0,1-7.6-1.87,28.36,28.36,0,0,1-7.37-4.83,32.61,32.61,0,0,1-6.11-7.72,37.64,37.64,0,0,1-3.83-10.2,42.47,42.47,0,0,1-.69-12,47.17,47.17,0,0,1,3.08-12.7,52.06,52.06,0,0,1,7.14-12.26,57.08,57.08,0,0,1,11.11-10.51,61.68,61.68,0,0,1,14.6-7.5,66.08,66.08,0,0,1,17.22-3.4,70.65,70.65,0,0,1,18.62,1.54,76,76,0,0,1,18.56,6.95,81,81,0,0,1,16.91,12.4,85.73,85.73,0,0,1,13.64,17.4,90.5,90.5,0,0,1,8.91,21.48,95.21,95.21,0,0,1,3,24.23A100.07,100.07,0,0,1,255,490.06a104.41,104.41,0,0,1-10.83,24.42A109.57,109.57,0,0,1,226.55,536a113.71,113.71,0,0,1-23.69,16.78,118.7,118.7,0,0,1-28.37,10.31,123.57,123.57,0,0,1-31.23,2.55,129.18,129.18,0,0,1-31.95-6A134,134,0,0,1,81,545a138.27,138.27,0,0,1-26.21-22.92,142.47,142.47,0,0,1-19.91-30A146.9,146.9,0,0,1,23.2,456.82a152.29,152.29,0,0,1-2.12-38.25A157.26,157.26,0,0,1,29.31,380,161.77,161.77,0,0,1,47.9,343.83,165.85,165.85,0,0,1,76.08,313a171.31,171.31,0,0,1,36.26-23,176.2,176.2,0,0,1,42.13-13.11,180.53,180.53,0,0,1,45.26-1.68A185.2,185.2,0,0,1,245,285.57a147.4,147.4,0,0,0,36.39,7.49,142.74,142.74,0,0,0,35.91-2.26,137.71,137.71,0,0,0,33-11.24,133,133,0,0,0,27.87-18.87A128.47,128.47,0,0,0,399.3,236a123.78,123.78,0,0,0,13.42-28.33A119.09,119.09,0,0,0,418,178a114.11,114.11,0,0,0-2.68-28.9A109.43,109.43,0,0,0,405.44,123a104.55,104.55,0,0,0-15.73-21.59,99.71,99.71,0,0,0-20-15.9A94.71,94.71,0,0,0,347.23,76a90.17,90.17,0,0,0-23.06-3,85.72,85.72,0,0,0-21.89,3.12,80.32,80.32,0,0,0-19.19,8.44,75.86,75.86,0,0,0-15.3,12.6,71.28,71.28,0,0,0-10.65,15.35,66.4,66.4,0,0,0-5.66,16.61,61.78,61.78,0,0,0-.8,16.4,56.88,56.88,0,0,0,3.55,14.88,51.86,51.86,0,0,0,7,12.31,47.26,47.26,0,0,0,9.46,9,42.34,42.34,0,0,0,10.7,5.39,37.82,37.82,0,0,0,10.76,1.78,32.7,32.7,0,0,0,9.73-1.43,28.28,28.28,0,0,0,7.87-4,24,24,0,0,0,5.42-5.64,19.46,19.46,0,0,0,2.73-6.33,15.79,15.79,0,0,0,.13-6.05,12.82,12.82,0,0,0-2.09-4.89,10.55,10.55,0,0,0-3.66-3.08,9.3,9.3,0,0,0-4.41-.85,9.3,9.3,0,0,1-4.4-.86,10.46,10.46,0,0,1-3.66-3.08,12.82,12.82,0,0,1-2.09-4.89,16,16,0,0,1,.12-6,19.9,19.9,0,0,1,2.73-6.33,23.84,23.84,0,0,1,5.43-5.64,28.23,28.23,0,0,1,7.86-4,32.82,32.82,0,0,1,9.74-1.43,37.75,37.75,0,0,1,10.75,1.78,42.5,42.5,0,0,1,10.7,5.39,47,47,0,0,1,9.47,9,52.21,52.21,0,0,1,7,12.31,56.47,56.47,0,0,1,3.54,14.88,61.77,61.77,0,0,1-.79,16.4,66.42,66.42,0,0,1-5.67,16.61A71.24,71.24,0,0,1,348,216.07a75.86,75.86,0,0,1-15.3,12.6,80.39,80.39,0,0,1-19.2,8.44,85.22,85.22,0,0,1-21.89,3.12,90.28,90.28,0,0,1-23.06-3,94.88,94.88,0,0,1-22.47-9.54,99.65,99.65,0,0,1-20-15.9,104.33,104.33,0,0,1-15.74-21.59,109.4,109.4,0,0,1-9.84-26.08,114.58,114.58,0,0,1-2.69-28.9,119.18,119.18,0,0,1,5.26-29.72,123.56,123.56,0,0,1,13.42-28.33,128.42,128.42,0,0,1,21.16-24.66,133,133,0,0,1,27.88-18.87,138.15,138.15,0,0,1,33-11.24,142.68,142.68,0,0,1,35.91-2.26,147.23,147.23,0,0,1,36.38,7.49A151.73,151.73,0,0,1,405,44.89a157,157,0,0,1,29.32,26.43,161.8,161.8,0,0,1,22,34.16A166.39,166.39,0,0,1,469,145.32a171,171,0,0,1,1.83,42.93,176,176,0,0,1-9.71,43,180.55,180.55,0,0,1-21.17,40,185.32,185.32,0,0,1-31.69,34,147.79,147.79,0,0,0-24.68,27.76,142.77,142.77,0,0,0-16,32.24,138.2,138.2,0,0,0-6.74,34.16,133.7,133.7,0,0,0,2.4,33.58A128.33,128.33,0,0,0,374,463.71a123.57,123.57,0,0,0,17.82,25.78,118.63,118.63,0,0,0,23.11,19.41A114.44,114.44,0,0,0,441.3,521a109.57,109.57,0,0,0,27.5,4.51,104.56,104.56,0,0,0,26.56-2.83,99.65,99.65,0,0,0,23.78-9.38,95.32,95.32,0,0,0,19.5-14.68,90.63,90.63,0,0,0,14.15-18.46A85.85,85.85,0,0,0,561,459.67a81.23,81.23,0,0,0,2.28-20.84,75.89,75.89,0,0,0-3.26-19.55,71.58,71.58,0,0,0-8-16.9,66.45,66.45,0,0,0-11.56-13.2,61.76,61.76,0,0,0-13.8-8.9,56.91,56.91,0,0,0-14.66-4.36,51.8,51.8,0,0,0-14.18-.06,47.34,47.34,0,0,0-12.54,3.69,42.14,42.14,0,0,0-10,6.57,37.59,37.59,0,0,0-6.92,8.42,32.88,32.88,0,0,0-3.63,9.15,28.28,28.28,0,0,0-.5,8.8,24.08,24.08,0,0,0,2.18,7.52,19.74,19.74,0,0,0,4.11,5.53,16.25,16.25,0,0,0,5.18,3.13,12.8,12.8,0,0,0,5.28.63,10.49,10.49,0,0,0,4.5-1.63,9.3,9.3,0,0,0,2.94-3.38Z" transform="translate(-13.69 -12.81)"/></svg>